<svg xmlns="http://www.w3.org/2000/svg" width="66.58" height="77.677" viewBox="0 0 66.58 77.677">
  <path id="Icon_metro-file-pdf" data-name="Icon metro-file-pdf" d="M66.2,18.675a10.086,10.086,0,0,1,2.081,3.294,10,10,0,0,1,.867,3.815V75.719A4.144,4.144,0,0,1,64.99,79.88H6.732a4.013,4.013,0,0,1-2.948-1.214,4.013,4.013,0,0,1-1.214-2.948V6.365A4.013,4.013,0,0,1,3.784,3.417,4.013,4.013,0,0,1,6.732,2.2H45.57a10.007,10.007,0,0,1,3.815.867,10.086,10.086,0,0,1,3.294,2.081ZM46.958,8.1V24.4h16.3A4.736,4.736,0,0,0,62.3,22.62L48.735,9.052A4.734,4.734,0,0,0,46.957,8.1ZM63.6,74.332V29.945H45.57a4.144,4.144,0,0,1-4.161-4.161V7.752H8.119v66.58H63.6Zm-22.28-25.7a32.982,32.982,0,0,0,3.641,2.427,43.014,43.014,0,0,1,5.072-.3q6.372,0,7.672,2.124a2.1,2.1,0,0,1,.087,2.254.125.125,0,0,1-.043.087l-.087.087v.043q-.26,1.647-3.077,1.647a17.881,17.881,0,0,1-4.985-.867,31.607,31.607,0,0,1-5.635-2.3,78.052,78.052,0,0,0-16.992,3.6q-6.632,11.357-10.49,11.357a2.521,2.521,0,0,1-1.214-.3l-1.04-.52q-.043-.043-.26-.217a1.791,1.791,0,0,1-.26-1.56,9.413,9.413,0,0,1,2.427-3.966,20.948,20.948,0,0,1,5.722-4.183.633.633,0,0,1,1,.26.25.25,0,0,1,.087.173q2.254-3.684,4.638-8.539A66.158,66.158,0,0,0,32.09,38.571a35.04,35.04,0,0,1-1.322-6.914,16.854,16.854,0,0,1,.282-5.527Q31.526,24.4,32.87,24.4h.954a1.828,1.828,0,0,1,1.517.65,3.462,3.462,0,0,1,.39,2.948.94.94,0,0,1-.173.347,1.128,1.128,0,0,1,.043.347v1.3a56.762,56.762,0,0,1-.607,8.323q2.384,7.109,6.329,10.316ZM16.355,66.443q2.254-1.04,5.938-6.849A24.71,24.71,0,0,0,18.5,63.235,14.408,14.408,0,0,0,16.355,66.443ZM33.607,26.564a12.889,12.889,0,0,0-.087,5.722q.043-.3.3-1.907,0-.13.3-1.864a.975.975,0,0,1,.173-.347.125.125,0,0,1-.043-.087.088.088,0,0,0-.022-.065.088.088,0,0,1-.022-.065,2.5,2.5,0,0,0-.564-1.56.125.125,0,0,1-.043.087v.087ZM28.232,55.216a63.58,63.58,0,0,1,12.31-3.511,6.538,6.538,0,0,1-.564-.412,7.764,7.764,0,0,1-.694-.585,22.961,22.961,0,0,1-5.5-7.629,57.925,57.925,0,0,1-3.6,8.539q-1.3,2.427-1.951,3.6Zm28-.694q-1.04-1.04-6.069-1.04A16.4,16.4,0,0,0,55.54,54.7a4.2,4.2,0,0,0,.78-.043q0-.043-.087-.13Z" transform="translate(-2.571 -2.203)" fill="#32abe2"/>
</svg>
