<svg xmlns="http://www.w3.org/2000/svg" width="253.378" height="176.367" viewBox="0 0 253.378 176.367">
  <g id="Group_226" data-name="Group 226" transform="translate(0 0)">
    <path id="Path_526" data-name="Path 526" d="M843.088,168.066l-19.546.19c-.919-4.523-4.005-16.39-1.225-19.627a4.758,4.758,0,0,1,5.011-4.257h0c3.03-4.742,8.076-4.03,11.486-1.069,3.432,1.184,4.726,3.288,4.274,6.144,2.542,2.225,3.011,4.932,1.87,8.014Z" transform="translate(-631.382 -140.947)" fill="#2f2e41"/>
    <path id="Path_527" data-name="Path 527" d="M848.977,234.718l-14.1-1.953-2.82-4.122c3.885-2.577,5.26-6.177,3.471-11.065l9.763-.217c-.457,4.353.982,7.723,4.99,9.763Z" transform="translate(-639.153 -195.557)" fill="#ffb9b9"/>
    <path id="Path_528" data-name="Path 528" d="M828.889,723.375l-.539,7.372a2.347,2.347,0,0,0,2.482,2.513l3.786-.229a1.2,1.2,0,0,0,1.089-1.485l-2.1-8.407Z" transform="translate(-636.5 -557.019)" fill="#e6e6e6"/>
    <path id="Path_529" data-name="Path 529" d="M867.862,723.14l-2.1,8.407a1.2,1.2,0,0,0,1.089,1.485l3.786.229a2.347,2.347,0,0,0,2.483-2.514l-.539-7.372Z" transform="translate(-663.216 -557.02)" fill="#e6e6e6"/>
    <path id="Path_530" data-name="Path 530" d="M670.482,396.419l-5.11-.513-5.087-54.376-1.923,54.2-5.02-.18-8.461-75.066h32.326Z" transform="translate(-460.874 -229.039)" fill="#6c63ff"/>
    <circle id="Ellipse_35" data-name="Ellipse 35" cx="9.763" cy="9.763" r="9.763" transform="translate(192.034 5.966)" fill="#ffb9b9"/>
    <path id="Path_531" data-name="Path 531" d="M832,312.1l-39.486.434c5.86-22.308,9.365-43.03,3.254-57.276l9.763-4.773c4.707,4.91,9.95,4.4,15.621-.434l9.329,2.387C828.886,271.124,829.6,291.132,832,312.1Z" transform="translate(-610.896 -218.923)" fill="#6c63ff"/>
    <path id="Path_532" data-name="Path 532" d="M754.5,343.447l24.516,9.763,5.481,1.612a1.9,1.9,0,0,0,2.375-1.359h0a1.9,1.9,0,0,0-1.079-2.2l-5.691-1.744-17.139-9.98,3.58-9.437-7.485-4.014Z" transform="translate(-583.727 -273.263)" fill="#ffb9b9"/>
    <path id="Path_533" data-name="Path 533" d="M755.26,284.359a24.351,24.351,0,0,1,11.282,9.112l9.112-13.234L769.145,268.3Z" transform="translate(-584.27 -231.965)" fill="#6c63ff"/>
    <path id="Path_534" data-name="Path 534" d="M851.256,166.711a19.939,19.939,0,0,0-11.645.134c-2.412,1.168-5.309,1.061-8.531.1V157.2l17.394.464Z" transform="translate(-638.456 -152.564)" fill="#2f2e41"/>
    <path id="Path_535" data-name="Path 535" d="M832.891,347.053A2.9,2.9,0,0,0,830,349.945l1.141,23.892a2.9,2.9,0,0,0,2.892,2.891h13.049a2.9,2.9,0,0,0,2.891-2.892l1.141-23.892a2.9,2.9,0,0,0-2.892-2.891Z" transform="translate(-637.684 -288.243)" fill="#3f3d56"/>
    <path id="Path_536" data-name="Path 536" d="M891.777,337.8l-21.369,8.509-1.612.642c-.051.02-.1.037-.157.054l-5.4,1.589c-.69.2-1.646-.728-2.206-1.37a1.736,1.736,0,0,1-.046-2.263,1.916,1.916,0,0,1,.245-.237,1.6,1.6,0,0,1,.713-.314l5.4-1.061a1.81,1.81,0,0,0,.551-.205l2.517-1.467,13.066-7.607a1.774,1.774,0,0,0,.768-2.163l-2.494-6.577a1.772,1.772,0,0,1,.819-2.191l4.132-2.214a1.771,1.771,0,0,1,2.551,1.113l3.587,13.662a1.774,1.774,0,0,1-1.058,2.1Z" transform="translate(-659.545 -269.421)" fill="#ffb9b9"/>
    <path id="Path_537" data-name="Path 537" d="M923.161,274.908a24.35,24.35,0,0,0-11.282,9.112l-9.112-13.234,6.509-12.366Z" transform="translate(-689.688 -224.9)" fill="#6c63ff"/>
    <path id="Path_538" data-name="Path 538" d="M848.123,209.036a17.868,17.868,0,0,1-13.411,0c1.356-2.315-.671-4.128-1.712-6.466l17.405-.517C849.074,204.084,847.11,206.483,848.123,209.036Z" transform="translate(-639.828 -184.617)" fill="#fff"/>
    <path id="Path_539" data-name="Path 539" d="M736.848,56.257l-.2-.2.285-.285,1.7-1.989.217.185-1.712,2Z" transform="translate(-526.455 -38.435)" fill="#fff"/>
    <rect id="Rectangle_122" data-name="Rectangle 122" width="0.285" height="2.229" transform="translate(191.795 16.832) rotate(-50.195)" fill="#fff"/>
    <rect id="Rectangle_123" data-name="Rectangle 123" width="5.58" height="0.285" transform="matrix(0.537, -0.844, 0.844, 0.537, 207.888, 24.207)" fill="#fff"/>
    <rect id="Rectangle_124" data-name="Rectangle 124" width="0.285" height="5.58" transform="translate(192.053 19.651) rotate(-32.471)" fill="#fff"/>
    <path id="Path_540" data-name="Path 540" d="M869.549,392.768v5.169l-1.8.717c-.057.022-.115.041-.175.06l-6.029,1.774c-.771.226-1.838-.812-2.462-1.529a1.938,1.938,0,0,1-.051-2.526,2.14,2.14,0,0,1,.274-.264,1.781,1.781,0,0,1,.8-.35l6.023-1.185a2.016,2.016,0,0,0,.615-.229Z" transform="translate(-658.116 -320.914)" fill="#fff"/>
    <path id="Path_541" data-name="Path 541" d="M888.062,263.584h-1.031c0-14.584-3-24.747-5.929-24.747l-.258-1.031c2.624,0,4.3,4.23,5.239,7.778A73.42,73.42,0,0,1,888.062,263.584Z" transform="translate(-674.021 -210.169)" fill="#3f3d56"/>
    <path id="Path_542" data-name="Path 542" d="M820.442,261.267h-1.031c0-13.356,3.023-21.653,7.476-21.653l-.258,1.031C823.549,240.644,820.442,247.021,820.442,261.267Z" transform="translate(-630.116 -211.46)" fill="#3f3d56"/>
    <circle id="Ellipse_36" data-name="Ellipse 36" cx="2.578" cy="2.578" r="2.578" transform="translate(210.948 51.095)" fill="#3f3d56"/>
    <path id="Path_543" data-name="Path 543" d="M805.987,320.4h-1.031c0-3.7,2.082-6.7,4.64-6.7v1.031C807.606,314.725,805.987,317.269,805.987,320.4Z" transform="translate(-619.786 -264.403)" fill="#3f3d56"/>
    <path id="Path_544" data-name="Path 544" d="M825.857,320.4h-1.031c0-3.127-1.619-5.671-3.609-5.671v-1.031C823.776,313.694,825.857,316.7,825.857,320.4Z" transform="translate(-631.407 -264.403)" fill="#3f3d56"/>
    <circle id="Ellipse_37" data-name="Ellipse 37" cx="1.031" cy="1.031" r="1.031" transform="translate(192.903 55.22)" fill="#3f3d56"/>
    <circle id="Ellipse_38" data-name="Ellipse 38" cx="1.031" cy="1.031" r="1.031" transform="translate(184.654 55.22)" fill="#3f3d56"/>
    <path id="Path_545" data-name="Path 545" d="M314.439,165.48l-18.109,3.067a1.833,1.833,0,0,1-2.074-1.316c-1.308-4.722-4.044-10.882-1.388-13.975a5.08,5.08,0,0,1,5.352-4.546h0c3.235-5.064,8.624-4.3,12.265-1.141,3.665,1.265,5.047,3.512,4.564,6.561a7.056,7.056,0,0,1,2.589,4.661,6.731,6.731,0,0,1-1.841,5.236Z" transform="translate(-253.015 -143.881)" fill="#2f2e41"/>
    <path id="Path_546" data-name="Path 546" d="M326.241,241.789l-14.039-.826a15.428,15.428,0,0,0,1.376-9.084h10.46C324.015,234.095,325.118,237.927,326.241,241.789Z" transform="translate(-267.632 -205.933)" fill="#9f616a"/>
    <path id="Path_547" data-name="Path 547" d="M300.721,720.6l-.576,7.872a2.506,2.506,0,0,0,2.651,2.684l4.043-.245A1.278,1.278,0,0,0,308,729.33l-2.244-8.977Z" transform="translate(-259.011 -555.028)" fill="#e6e6e6"/>
    <path id="Path_548" data-name="Path 548" d="M342.338,720.353l-2.244,8.977a1.278,1.278,0,0,0,1.163,1.586l4.043.245a2.506,2.506,0,0,0,2.651-2.684l-.576-7.872Z" transform="translate(-287.538 -555.028)" fill="#e6e6e6"/>
    <path id="Path_549" data-name="Path 549" d="M142.15,381.029l-5.456-.547-5.432-58.065-2.053,57.878-5.361-.192-9.035-80.158h34.519Z" transform="translate(-82.053 -214.359)" fill="#6c63ff"/>
    <circle id="Ellipse_39" data-name="Ellipse 39" cx="10.425" cy="10.425" r="10.425" transform="translate(41.027 8.438)" fill="#9f616a"/>
    <path id="Path_550" data-name="Path 550" d="M323.538,172.411a31.123,31.123,0,0,0-12.435.1,18.114,18.114,0,0,1-9.11.071v-7.03l18.574.335Z" transform="translate(-260.336 -158.528)" fill="#2f2e41"/>
    <path id="Path_551" data-name="Path 551" d="M320.192,217.694a19.079,19.079,0,0,1-14.32,0c1.448-2.472-.717-4.409-1.828-6.9l18.586-.552C321.208,212.405,319.111,214.967,320.192,217.694Z" transform="translate(-261.802 -190.466)" fill="#fff"/>
    <rect id="Rectangle_125" data-name="Rectangle 125" width="0.285" height="2.38" transform="translate(40.78 19.119) rotate(-50.195)" fill="#fff"/>
    <rect id="Rectangle_126" data-name="Rectangle 126" width="5.959" height="0.285" transform="matrix(0.537, -0.844, 0.844, 0.537, 57.965, 27.007)" fill="#fff"/>
    <rect id="Rectangle_127" data-name="Rectangle 127" width="0.285" height="5.959" transform="translate(41.055 22.133) rotate(-32.471)" fill="#fff"/>
    <path id="Path_552" data-name="Path 552" d="M246.867,295.785l-7.983-4.955,6.808-19.939a9.406,9.406,0,0,1,4.112-4.884l2.293-1.328.2,20.115Z" transform="translate(-215.235 -229.374)" fill="#6c63ff"/>
    <path id="Path_553" data-name="Path 553" d="M297.413,294.438l-1.181-10.116a35.488,35.488,0,0,1,3.011-15.258l1.1-14.864-12.112-4.955c-.037.247-.069.493-.1.74l-5.677,2.838-5.536-1.258.031-1.77-11.011,4.955c3.641,16.928,1.655,34.508-4.606,55.272l14.506,3.966.121-6.965,12.928-.923c.133,2.26.24,4.479.3,6.65,7.295,2.686,7.545,2.641,14.192-1.2A78,78,0,0,1,297.413,294.438Z" transform="translate(-231.275 -218.343)" fill="#6c63ff"/>
    <path id="Path_554" data-name="Path 554" d="M248.66,153.74l-7.432-2.477-11.888-13.84,3.63-11.76,16.516,23.122Z" transform="translate(-163.901 -89.807)" fill="#6c63ff"/>
    <path id="Path_555" data-name="Path 555" d="M371.29,392.8a2.067,2.067,0,0,0,2.47,1.558l6.309-1.429-.912-4.027-6.309,1.428a2.065,2.065,0,0,0-1.558,2.47Z" transform="translate(-309.824 -318.149)" fill="#e6e6e6"/>
    <path id="Path_556" data-name="Path 556" d="M391.309,358.656l3.578,6.606c6.019-1.679,11.235-6.971,16.241-13.213l-1.376-4.4-8.533,2.2Z" transform="translate(-324.167 -288.667)" fill="#6c63ff"/>
    <path id="Path_557" data-name="Path 557" d="M71.79,172.661l6.87,1.227,15.7,22.327-8.342-1.963Z" transform="translate(-51.306 -123.394)" fill="#e6e6e6"/>
    <path id="Path_558" data-name="Path 558" d="M222.079,312.65a.584.584,0,0,0-.479.905l14.677,22.269a.582.582,0,0,0,.353.247l6.829,1.607a.583.583,0,0,0,.611-.9l-16.115-22.913a.58.58,0,0,0-.375-.239l-5.391-.963A.635.635,0,0,0,222.079,312.65Z" transform="translate(-202.813 -263.657)" fill="#3f3d56"/>
    <path id="Path_559" data-name="Path 559" d="M255.608,366.826l.408,4.109,6.437-.639a2.065,2.065,0,0,0-.408-4.109Z" transform="translate(-227.186 -301.91)" fill="#e6e6e6"/>
    <path id="Path_560" data-name="Path 560" d="M235.991,358.158a5.31,5.31,0,0,0,5.3,5.274h1.058l.771-6.421-6.38-2.3Z" transform="translate(-213.167 -293.718)" fill="#6c63ff"/>
    <path id="Path_561" data-name="Path 561" d="M210.894,65.189l-.2-.2.3-.3,1.821-2.125.217.185-1.828,2.133Z" transform="translate(-150.574 -44.708)" fill="#fff"/>
    <rect id="Rectangle_128" data-name="Rectangle 128" width="253.378" height="0.571" transform="translate(0 175.797)" fill="#3f3d56"/>
    <path id="Path_562" data-name="Path 562" d="M495,556.535h59.92V483.856c0-3.849-3.791-6.979-8.45-6.979H503.45c-4.659,0-8.45,3.131-8.45,6.979Z" transform="translate(-398.271 -381.024)" fill="#e6e6e6"/>
    <path id="Path_563" data-name="Path 563" d="M511,576.4h50.79V514.8c0-3.262-3.213-5.916-7.162-5.916H518.162c-3.95,0-7.162,2.654-7.162,5.916Z" transform="translate(-409.706 -403.898)" fill="#fff"/>
    <path id="Path_564" data-name="Path 564" d="M486.686,457.053A2.489,2.489,0,0,0,484,459.271v6.4a2.489,2.489,0,0,0,2.686,2.219h60.826a2.489,2.489,0,0,0,2.686-2.219v-6.4a2.489,2.489,0,0,0-2.686-2.219Z" transform="translate(-390.41 -366.856)" fill="#3f3d56"/>
    <path id="Path_565" data-name="Path 565" d="M530.608,717.836a2.632,2.632,0,0,0-2.624,2.624h0a2.632,2.632,0,0,0,2.624,2.624h4.912v-5.248Z" transform="translate(-421.844 -553.229)" fill="#3f3d56"/>
    <path id="Path_566" data-name="Path 566" d="M558.229,717.836h-4.777v5.248h4.777a2.632,2.632,0,0,0,2.624-2.624h0A2.632,2.632,0,0,0,558.229,717.836Z" transform="translate(-440.045 -553.229)" fill="#6c63ff"/>
    <path id="Path_567" data-name="Path 567" d="M559.942,720.088a2.609,2.609,0,0,1,.643,1.712h0a2.632,2.632,0,0,1-2.624,2.624h-4.508v.269h4.777a2.632,2.632,0,0,0,2.624-2.624h0A2.618,2.618,0,0,0,559.942,720.088Z" transform="translate(-440.045 -554.838)" opacity="0.2"/>
    <path id="Path_568" data-name="Path 568" d="M603.514,577.254a2.632,2.632,0,0,0-3.709-.11h0a2.632,2.632,0,0,0-.11,3.709l3.369,3.574,3.819-3.6Z" transform="translate(-472.585 -452.173)" fill="#3f3d56"/>
    <path id="Path_569" data-name="Path 569" d="M619.734,594.625l-3.277-3.476-3.819,3.6,3.277,3.476a2.632,2.632,0,0,0,3.709.109h0A2.632,2.632,0,0,0,619.734,594.625Z" transform="translate(-482.343 -462.69)" fill="#6c63ff"/>
    <path id="Path_570" data-name="Path 570" d="M620.441,604.867a2.608,2.608,0,0,1-.805,1.642h0a2.632,2.632,0,0,1-3.709-.11l-3.092-3.28-.2.185,3.277,3.476a2.632,2.632,0,0,0,3.709.109h0A2.618,2.618,0,0,0,620.441,604.867Z" transform="translate(-482.343 -471.245)" opacity="0.2"/>
    <path id="Path_571" data-name="Path 571" d="M554.514,606.254a2.632,2.632,0,0,0-3.709-.109h0a2.632,2.632,0,0,0-.11,3.709l3.369,3.574,3.819-3.6Z" transform="translate(-437.566 -472.898)" fill="#3f3d56"/>
    <path id="Path_572" data-name="Path 572" d="M570.734,623.625l-3.277-3.476-3.819,3.6,3.277,3.476a2.632,2.632,0,0,0,3.709.109h0A2.632,2.632,0,0,0,570.734,623.625Z" transform="translate(-447.324 -483.415)" fill="#6c63ff"/>
    <path id="Path_573" data-name="Path 573" d="M571.44,633.867a2.608,2.608,0,0,1-.805,1.642h0a2.632,2.632,0,0,1-3.709-.109l-3.092-3.28-.2.185,3.277,3.476a2.632,2.632,0,0,0,3.709.11h0A2.619,2.619,0,0,0,571.44,633.867Z" transform="translate(-447.324 -491.97)" opacity="0.2"/>
    <path id="Path_574" data-name="Path 574" d="M603.514,633.254a2.632,2.632,0,0,0-3.71-.11h0a2.632,2.632,0,0,0-.109,3.709l3.369,3.574,3.819-3.6Z" transform="translate(-472.585 -492.194)" fill="#3f3d56"/>
    <path id="Path_575" data-name="Path 575" d="M619.734,650.625l-3.277-3.476-3.819,3.6,3.277,3.476a2.632,2.632,0,0,0,3.709.11h0A2.632,2.632,0,0,0,619.734,650.625Z" transform="translate(-482.343 -502.711)" fill="#6c63ff"/>
    <path id="Path_576" data-name="Path 576" d="M620.441,660.867a2.608,2.608,0,0,1-.805,1.642h0a2.632,2.632,0,0,1-3.709-.109l-3.092-3.28-.2.185,3.277,3.476a2.632,2.632,0,0,0,3.709.109h0A2.618,2.618,0,0,0,620.441,660.867Z" transform="translate(-482.343 -511.266)" opacity="0.2"/>
    <path id="Path_577" data-name="Path 577" d="M626.773,681.485a2.632,2.632,0,0,0,.064-3.711h0a2.632,2.632,0,0,0-3.711-.064l-3.533,3.412,3.646,3.775Z" transform="translate(-487.314 -524.028)" fill="#3f3d56"/>
    <path id="Path_578" data-name="Path 578" d="M609.878,697.945l3.436-3.319-3.646-3.775-3.436,3.319a2.632,2.632,0,0,0-.064,3.711h0A2.632,2.632,0,0,0,609.878,697.945Z" transform="translate(-477.194 -533.944)" fill="#6c63ff"/>
    <path id="Path_579" data-name="Path 579" d="M608.2,698.672a2.609,2.609,0,0,1-1.652-.785h0a2.632,2.632,0,0,1,.064-3.71l3.243-3.132-.187-.194-3.436,3.319a2.632,2.632,0,0,0-.064,3.71h0A2.618,2.618,0,0,0,608.2,698.672Z" transform="translate(-477.194 -533.944)" opacity="0.2"/>
    <path id="Path_580" data-name="Path 580" d="M560.773,652.485a2.632,2.632,0,0,0,.064-3.71h0a2.632,2.632,0,0,0-3.71-.064l-3.533,3.412,3.646,3.775Z" transform="translate(-440.146 -503.303)" fill="#3f3d56"/>
    <path id="Path_581" data-name="Path 581" d="M543.878,668.945l3.436-3.319-3.646-3.775-3.436,3.319a2.632,2.632,0,0,0-.064,3.711h0A2.632,2.632,0,0,0,543.878,668.945Z" transform="translate(-430.026 -513.219)" fill="#6c63ff"/>
    <path id="Path_582" data-name="Path 582" d="M542.2,669.672a2.609,2.609,0,0,1-1.652-.785h0a2.632,2.632,0,0,1,.064-3.711l3.243-3.132-.187-.193-3.436,3.319a2.632,2.632,0,0,0-.064,3.71h0A2.619,2.619,0,0,0,542.2,669.672Z" transform="translate(-430.026 -513.218)" opacity="0.2"/>
    <path id="Path_583" data-name="Path 583" d="M654.773,617.485a2.632,2.632,0,0,0,.064-3.71h0a2.632,2.632,0,0,0-3.711-.064l-3.533,3.412,3.646,3.775Z" transform="translate(-507.325 -478.29)" fill="#3f3d56"/>
    <path id="Path_584" data-name="Path 584" d="M637.877,633.945l3.436-3.319-3.646-3.775-3.436,3.319a2.632,2.632,0,0,0-.064,3.71h0A2.632,2.632,0,0,0,637.877,633.945Z" transform="translate(-497.205 -488.205)" fill="#6c63ff"/>
    <path id="Path_585" data-name="Path 585" d="M636.2,634.672a2.61,2.61,0,0,1-1.652-.785h0a2.632,2.632,0,0,1,.064-3.711l3.243-3.132-.187-.194-3.436,3.319a2.632,2.632,0,0,0-.064,3.71h0A2.618,2.618,0,0,0,636.2,634.672Z" transform="translate(-497.205 -488.205)" opacity="0.2"/>
    <path id="Path_586" data-name="Path 586" d="M640.514,699.254a2.632,2.632,0,0,0-3.709-.109h0a2.632,2.632,0,0,0-.109,3.709l3.369,3.574,3.819-3.6Z" transform="translate(-499.027 -539.362)" fill="#3f3d56"/>
    <path id="Path_587" data-name="Path 587" d="M656.734,716.625l-3.277-3.476-3.819,3.6,3.277,3.476a2.632,2.632,0,0,0,3.709.11h0A2.632,2.632,0,0,0,656.734,716.625Z" transform="translate(-508.786 -549.879)" fill="#6c63ff"/>
    <path id="Path_588" data-name="Path 588" d="M657.44,726.867a2.608,2.608,0,0,1-.805,1.642h0a2.632,2.632,0,0,1-3.709-.109l-3.092-3.28-.2.185,3.277,3.476a2.632,2.632,0,0,0,3.709.109h0A2.618,2.618,0,0,0,657.44,726.867Z" transform="translate(-508.785 -558.434)" opacity="0.2"/>
    <path id="Path_589" data-name="Path 589" d="M575.514,698.254a2.632,2.632,0,0,0-3.709-.11h0a2.632,2.632,0,0,0-.11,3.709l3.369,3.574,3.819-3.6Z" transform="translate(-452.574 -538.647)" fill="#3f3d56"/>
    <path id="Path_590" data-name="Path 590" d="M591.734,715.625l-3.277-3.476-3.819,3.6,3.277,3.476a2.632,2.632,0,0,0,3.709.11h0A2.632,2.632,0,0,0,591.734,715.625Z" transform="translate(-462.332 -549.165)" fill="#6c63ff"/>
    <path id="Path_591" data-name="Path 591" d="M592.441,725.867a2.608,2.608,0,0,1-.805,1.642h0a2.632,2.632,0,0,1-3.709-.11l-3.092-3.28-.2.185,3.277,3.476a2.632,2.632,0,0,0,3.709.109h0A2.618,2.618,0,0,0,592.441,725.867Z" transform="translate(-462.332 -557.719)" opacity="0.2"/>
    <path id="Path_592" data-name="Path 592" d="M586.2,657.837a3.785,3.785,0,0,1-3.028,3.709,3.824,3.824,0,0,1-1.513,0,3.785,3.785,0,1,1,4.541-3.709Z" transform="translate(-458.04 -507.645)" fill="#6c63ff"/>
    <path id="Path_593" data-name="Path 593" d="M590.756,654.128v7.417a3.821,3.821,0,0,1-1.514,0v-7.417a3.818,3.818,0,0,1,1.514,0Z" transform="translate(-465.623 -507.645)" opacity="0.2"/>
    <path id="Path_594" data-name="Path 594" d="M592.2,604.837a3.785,3.785,0,1,1-3.028-3.709A3.785,3.785,0,0,1,592.2,604.837Z" transform="translate(-462.328 -469.768)" fill="#6c63ff"/>
    <path id="Path_595" data-name="Path 595" d="M596.756,601.128v7.418a3.822,3.822,0,0,1-1.514,0v-7.418A3.822,3.822,0,0,1,596.756,601.128Z" transform="translate(-469.911 -469.768)" opacity="0.2"/>
    <path id="Path_596" data-name="Path 596" d="M592.2,680.837a3.784,3.784,0,1,1-3.028-3.709A3.784,3.784,0,0,1,592.2,680.837Z" transform="translate(-462.328 -524.083)" fill="#6c63ff"/>
    <path id="Path_597" data-name="Path 597" d="M596.756,677.128v7.418a3.826,3.826,0,0,1-1.514,0v-7.418A3.819,3.819,0,0,1,596.756,677.128Z" transform="translate(-469.911 -524.083)" opacity="0.2"/>
    <path id="Path_598" data-name="Path 598" d="M625.2,717.837a3.785,3.785,0,1,1-4.542-3.709,3.825,3.825,0,0,1,1.514,0A3.784,3.784,0,0,1,625.2,717.837Z" transform="translate(-485.912 -550.526)" fill="#6c63ff"/>
    <path id="Path_599" data-name="Path 599" d="M629.755,714.128v7.418a3.821,3.821,0,0,1-1.514,0v-7.418A3.821,3.821,0,0,1,629.755,714.128Z" transform="translate(-493.495 -550.525)" opacity="0.2"/>
    <path id="Path_600" data-name="Path 600" d="M657.252,656.584a3.785,3.785,0,1,1-4.771-.394A3.784,3.784,0,0,1,657.252,656.584Z" transform="translate(-509.646 -508.697)" fill="#6c63ff"/>
    <path id="Path_601" data-name="Path 601" d="M653.957,657.86l5.341,5.148a3.823,3.823,0,0,1-1.05,1.09l-5.341-5.148A3.822,3.822,0,0,1,653.957,657.86Z" transform="translate(-511.121 -510.366)" opacity="0.2"/>
    <path id="Path_602" data-name="Path 602" d="M661.252,685.584a3.784,3.784,0,0,1,.569,4.754,3.824,3.824,0,0,1-1.05,1.09,3.785,3.785,0,0,1-5.341-5.148,3.825,3.825,0,0,1,1.051-1.09A3.784,3.784,0,0,1,661.252,685.584Z" transform="translate(-512.504 -529.422)" fill="#6c63ff"/>
    <path id="Path_603" data-name="Path 603" d="M657.957,686.86l5.341,5.148a3.825,3.825,0,0,1-1.05,1.09l-5.341-5.148A3.822,3.822,0,0,1,657.957,686.86Z" transform="translate(-513.98 -531.092)" opacity="0.2"/>
    <path id="Path_604" data-name="Path 604" d="M542.252,692.584a3.784,3.784,0,1,1-5.822.7,3.824,3.824,0,0,1,1.051-1.09A3.785,3.785,0,0,1,542.252,692.584Z" transform="translate(-427.459 -534.425)" fill="#6c63ff"/>
    <path id="Path_605" data-name="Path 605" d="M538.957,693.86l5.341,5.148a3.824,3.824,0,0,1-1.05,1.09l-5.341-5.148A3.82,3.82,0,0,1,538.957,693.86Z" transform="translate(-428.935 -536.094)" opacity="0.2"/>
    <rect id="Rectangle_129" data-name="Rectangle 129" width="1.427" height="10.557" transform="translate(101.151 90.196)" opacity="0.2"/>
    <rect id="Rectangle_130" data-name="Rectangle 130" width="1.427" height="10.557" transform="translate(109.426 90.196)" opacity="0.2"/>
    <rect id="Rectangle_131" data-name="Rectangle 131" width="1.427" height="10.557" transform="translate(117.701 90.196)" opacity="0.2"/>
    <rect id="Rectangle_132" data-name="Rectangle 132" width="1.427" height="10.557" transform="translate(125.975 90.196)" opacity="0.2"/>
    <rect id="Rectangle_133" data-name="Rectangle 133" width="1.427" height="10.557" transform="translate(134.25 90.196)" opacity="0.2"/>
    <rect id="Rectangle_134" data-name="Rectangle 134" width="1.427" height="10.557" transform="translate(142.525 90.196)" opacity="0.2"/>
    <rect id="Rectangle_135" data-name="Rectangle 135" width="1.427" height="10.557" transform="translate(150.8 90.196)" opacity="0.2"/>
  </g>
</svg>
