<svg xmlns="http://www.w3.org/2000/svg" width="79.317" height="79.335" viewBox="0 0 79.317 79.335">
  <path id="Icon_awesome-wpforms" data-name="Icon awesome-wpforms" d="M79.317,9.9V73.937a7.561,7.561,0,0,1-7.648,7.648H7.648A7.587,7.587,0,0,1,0,73.919V9.9A7.561,7.561,0,0,1,7.648,2.25H71.687A7.558,7.558,0,0,1,79.317,9.9Zm-6.6,64.02V9.9a1.051,1.051,0,0,0-1.027-1.027H70.04L50.512,22.079,39.659,13.245,28.823,22.079,9.3,8.854H7.648A1.051,1.051,0,0,0,6.622,9.881V73.919a1.051,1.051,0,0,0,1.027,1.027H71.687a1.028,1.028,0,0,0,1.027-1.027Zm-46.121-44.4v6.551H13.58V29.515Zm0,13.172v6.6H13.58v-6.6Zm1.965-26.079,9.561-7.737H17.138Zm37.18,12.907v6.551h-34.7V29.515Zm0,13.172v6.6h-34.7v-6.6ZM50.76,16.609l11.42-7.737H41.217ZM65.738,55.9v6.6h-17.6V55.9h17.6Z" transform="translate(0 -2.25)" fill="#32abe2"/>
</svg>
