<svg id="Group_7" data-name="Group 7" xmlns="http://www.w3.org/2000/svg" width="161.225" height="238.226" viewBox="0 0 161.225 238.226">
  <g id="undraw_personal_site_xyd1" transform="translate(0 0)">
    <path id="Path_10" data-name="Path 10" d="M351.617,305.25h-62.7A6.918,6.918,0,0,0,282,312.168v85.074a6.918,6.918,0,0,0,6.918,6.913h62.7a6.918,6.918,0,0,0,6.923-6.913V312.168a6.918,6.918,0,0,0-6.923-6.918Z" transform="translate(-197.315 -289.829)" fill="#2a2ac0" opacity="0.3"/>
    <path id="Path_12" data-name="Path 12" d="M280.634,428.437c-3.094,1.174-10.292,1.308-13.507,1.3h-1.574l-2.052-4.178,2.052-3.487s1.883-.515,4.383-.969c3.693-.666,8.743-1.211,11.152.309C285.126,423.908,284.672,426.905,280.634,428.437Z" transform="translate(-185.624 -333.76)" fill="#fec2be"/>
    <path id="Path_13" data-name="Path 13" d="M267.127,430.174h-1.574L263.5,426l2.052-3.487s1.883-.515,4.383-.969C267.908,423.029,263.028,426.262,267.127,430.174Z" transform="translate(-185.624 -334.195)" opacity="0.1"/>
    <path id="Path_14" data-name="Path 14" d="M211.182,350.367l.908-1.047s4.662,7.386,5.152,10.171,1.114,5.988,1.114,5.988,1.211,3.633,1.95,5.225a18.785,18.785,0,0,1,1.532,3.832c.067.7-.279,2.228,1.211,3.2s1.816,3.633,1.816,3.633,5.291,5.158,8.077,5.3,10.8,1.532,10.522,2.924,3.342,2.228,4.8,2.573-9.4,4.529-3.064,9.893c0,0-4.038.836-4.456,1.816s-4.668-.557-4.668-.557a4.4,4.4,0,0,0-4.038-2.295c-3.136-.139-4.735-1.538-4.735-1.744a17.565,17.565,0,0,0-4.88-2.422c-1.744-.472-4.038-.7-4.111-1.181S207.87,350.4,207.87,350.4Z" transform="translate(-163.674 -305.699)" fill="#4c4981"/>
    <path id="Path_15" data-name="Path 15" d="M211.182,350.367l.908-1.047s4.662,7.386,5.152,10.171,1.114,5.988,1.114,5.988,1.211,3.633,1.95,5.225a18.785,18.785,0,0,1,1.532,3.832c.067.7-.279,2.228,1.211,3.2s1.816,3.633,1.816,3.633,5.291,5.158,8.077,5.3,10.8,1.532,10.522,2.924,3.342,2.228,4.8,2.573-9.4,4.529-3.064,9.893c0,0-4.038.836-4.456,1.816s-4.668-.557-4.668-.557a4.4,4.4,0,0,0-4.038-2.295c-3.136-.139-4.735-1.538-4.735-1.744a17.565,17.565,0,0,0-4.88-2.422c-1.744-.472-4.038-.7-4.111-1.181S207.87,350.4,207.87,350.4Z" transform="translate(-163.674 -305.699)" fill="#192534"/>
    <path id="Path_17" data-name="Path 17" d="M187.251,662.042c-9.191,1.725-10.868-5.328-10.868-5.328s-1.144-6.272-1.562-6.739a.75.75,0,0,1-.073-.605l2.21,6.345s1.816,3.814,8.621,3.239c3.863-.327,5.77-1.041,6.69-1.6a14.129,14.129,0,0,1,.678,2.125C193.468,661.672,187.251,662.042,187.251,662.042Z" transform="translate(-150.593 -424.088)" opacity="0.1"/>
    <path id="Path_18" data-name="Path 18" d="M183.6,652.716s2.3.054,2.458-1.816Z" transform="translate(-154.098 -424.692)" opacity="0.1"/>
    <path id="Path_20" data-name="Path 20" d="M183.868,335.011c-.333-.139-23.061-9.523-19.931-11.388,1.859-1.108,4.147-5.8,5.709-9.475,1.1-2.561,1.816-4.632,1.816-4.632s18.242-3.239,11.715,7.943a20.584,20.584,0,0,0-2.3,5.5C179.031,330.579,183.711,334.872,183.868,335.011Z" transform="translate(-146.223 -289.822)" fill="#fec2be"/>
    <path id="Path_21" data-name="Path 21" d="M187.11,317.459a20.585,20.585,0,0,0-2.3,5.5,12.714,12.714,0,0,1-10.771-7.568,12.345,12.345,0,0,1-.478-1.247c1.1-2.561,1.816-4.632,1.816-4.632S193.636,306.277,187.11,317.459Z" transform="translate(-150.137 -289.822)" opacity="0.1"/>
    <path id="Path_22" data-name="Path 22" d="M198.049,302.009a12.744,12.744,0,0,1-24.405,5.146,12.6,12.6,0,0,1-1.084-5.146,12.744,12.744,0,0,1,24.992-3.53A12.588,12.588,0,0,1,198.049,302.009Z" transform="translate(-149.742 -282)" fill="#fec2be"/>
    <path id="Path_23" data-name="Path 23" d="M203.94,463.523a7.814,7.814,0,0,0-1.847,3.524s-6.266,4.28-5.849,1.562-3.239-13.683-3.239-13.683l.418,14.936s-20.064-.938-21.523-2.422-10.032-4.287-10.032-4.287-2.622,2.107-5.031,3.705c-.321-1.816-.557-3.39-.557-3.39l8.621-6.95,21.481-5.618,8.1-2.609,7.871,12.43S203.2,462.039,203.94,463.523Z" transform="translate(-143.319 -344.749)" opacity="0.1"/>
    <path id="Path_24" data-name="Path 24" d="M202.437,413.615c-1.671,1.047-2.3,3.863-2.3,3.863s-6.266,4.286-5.849,1.568-3.239-13.683-3.239-13.683l.418,14.936s-20.058-.938-21.523-2.422-10.026-4.28-10.026-4.28-7.423,5.957-8.779,5.449,2.422-10.656,2.422-10.656l3.863-59.333s-1.041-17.655.527-18.284a2.171,2.171,0,0,0,.654-.412c1.035-.926,1.344-2.809,1.435-4.4.1-1.877,2.609-.938,2.609-.938l-1.459,1.883,12.944,7.871.115.067a14.8,14.8,0,0,1,1.556-.7c1.144-.442,2.67-.86,3.669-.448a3.559,3.559,0,0,1,1.368,1.211,15.477,15.477,0,0,1,1.762,3.572l4.662,7.956s2.422,10.553,2.422,10.97.733,10.026,1.568,11.073,1.671,6.266,1.356,7.834.521,7.423.521,7.423c3.451,2.815,5.225,12.43,5.225,12.43s5.449,10.765,5.849,12.018S204.108,412.567,202.437,413.615Z" transform="translate(-141.174 -296.022)" fill="#fff"/>
    <path id="Path_25" data-name="Path 25" d="M179.159,335.491c-1.271,1.883-4.934,4.529-4.934,4.529l-10.6-8.948c1.035-.926,1.344-2.809,1.435-4.389.1-1.883,2.609-.944,2.609-.944l-.3.394a1.683,1.683,0,0,0,.454,2.47Z" transform="translate(-146.219 -296.302)" opacity="0.1"/>
    <path id="Path_26" data-name="Path 26" d="M179.159,334.773c-1.271,1.883-4.934,4.523-4.934,4.523l-10.6-8.924c1.035-.926,1.344-2.809,1.435-4.4.1-1.877,2.609-.938,2.609-.938l-.3.393a1.683,1.683,0,0,0,.454,2.47Z" transform="translate(-146.219 -296.026)" fill="#fff"/>
    <path id="Path_27" data-name="Path 27" d="M194,342.548c-1.368,1.635-3.306,3.487-3.215,2.561s-1.156-2.985-1.956-3.905a5.764,5.764,0,0,1,3.8.109A3.438,3.438,0,0,1,194,342.548Z" transform="translate(-156.162 -302.391)" opacity="0.1"/>
    <path id="Path_28" data-name="Path 28" d="M194.431,341.644c-1.368,1.635-3.306,3.493-3.215,2.561s-1.029-2.422-1.816-3.354c1.144-.442,2.67-.854,3.669-.442A3.518,3.518,0,0,1,194.431,341.644Z" transform="translate(-156.387 -302.117)" fill="#fff"/>
    <circle id="Ellipse_4" data-name="Ellipse 4" cx="0.836" cy="0.836" r="0.836" transform="translate(33.782 46.545)" fill="#192534"/>
    <circle id="Ellipse_5" data-name="Ellipse 5" cx="0.836" cy="0.836" r="0.836" transform="translate(40.121 69.116)" fill="#192534"/>
    <circle id="Ellipse_6" data-name="Ellipse 6" cx="0.836" cy="0.836" r="0.836" transform="translate(47.296 91.959)" fill="#192534"/>
    <circle id="Ellipse_7" data-name="Ellipse 7" cx="0.836" cy="0.836" r="0.836" transform="translate(47.507 116.824)" fill="#192534"/>
    <circle id="Ellipse_8" data-name="Ellipse 8" cx="0.836" cy="0.836" r="0.836" transform="translate(37.475 57.201)" fill="#192534"/>
    <circle id="Ellipse_9" data-name="Ellipse 9" cx="0.836" cy="0.836" r="0.836" transform="translate(43.118 80.395)" fill="#192534"/>
    <circle id="Ellipse_10" data-name="Ellipse 10" cx="0.836" cy="0.836" r="0.836" transform="translate(48.622 103.171)" fill="#192534"/>
    <circle id="Ellipse_11" data-name="Ellipse 11" cx="0.836" cy="0.836" r="0.836" transform="translate(47.368 119.609)" fill="#192534"/>
    <path id="Path_29" data-name="Path 29" d="M152.542,334.592s.139-1.259-1.671.9a21.882,21.882,0,0,1-5.225,4.038s-7.731,5.449-8.149,7.943-2.924,13.374-1.6,16.995,11.419,20.966,11.419,20.966-2.646,3.136-2.016,6.823,1.393,8.779,1.041,9.893.418,3.9-.763,4.874-2.422,2.646,1.253,4.88c0,0,.7,1.877.067,2.294s9.263,4.741,13.162,2.422S171,395.935,171.135,391.8s-2.161-17.691-3.415-20.894-5.013-15.675-6.617-18.46S152.542,334.592,152.542,334.592Z" transform="translate(-135.124 -299.745)" opacity="0.1"/>
    <path id="Path_30" data-name="Path 30" d="M151.9,334.592s.139-1.259-1.671.9a21.882,21.882,0,0,1-5.225,4.038s-7.731,5.449-8.149,7.943-2.924,13.374-1.6,16.995,11.425,20.966,11.425,20.966-2.646,3.142-2.04,6.823,1.4,8.779,1.047,9.893.418,3.9-.763,4.874-2.422,2.646,1.253,4.88c0,0,.7,1.877.067,2.294s9.263,4.741,13.162,2.422,10.94-20.688,11.079-24.823-2.161-17.691-3.415-20.894-5.025-15.626-6.63-18.417S151.9,334.592,151.9,334.592Z" transform="translate(-134.872 -299.745)" fill="#192534"/>
    <path id="Path_31" data-name="Path 31" d="M158.35,354.38s5.988,6.617,5.782,11.007C164.132,365.387,164.192,358.285,158.35,354.38Z" transform="translate(-144.135 -307.696)" opacity="0.1"/>
    <path id="Path_32" data-name="Path 32" d="M172,372.33c0,.212,4.038,15.257,3.832,17.134s1.181,7.453,1.181,7.453l1.883-.484s-1.465-7.731-1.744-10.589S172,372.33,172,372.33Z" transform="translate(-149.521 -314.778)" opacity="0.1"/>
    <path id="Path_33" data-name="Path 33" d="M169.88,443.2c-.139.206-9.542,10.868-6.9,11.63S169.88,443.2,169.88,443.2Z" transform="translate(-145.779 -342.741)" opacity="0.1"/>
    <path id="Path_34" data-name="Path 34" d="M159.165,438.71c-.206.139-3.76,7.665-4.178,5.643s3.064,5.5,3.633-.067Z" transform="translate(-142.795 -340.969)" opacity="0.1"/>
    <path id="Path_35" data-name="Path 35" d="M191.641,338.443s3.881-2.367,8.761,3.687c0,0,3.548,2.022,4.6,2.513s2.228,13.441,2.228,13.441,2.3,5.57,1.671,8.779,1.816,14.2,1.816,14.2,4.044,19.786,3.905,20.343-4.117-6.2-4.05-9.53-3.342-13.792-3.826-14.422-3.832-18.526-3.832-18.526-2.718-7.616-4.45-10.111-3.905-7.265-4.807-8.083a9.2,9.2,0,0,0-2.161-1.393Z" transform="translate(-157.211 -301.228)" opacity="0.1"/>
    <path id="Path_36" data-name="Path 36" d="M191.587,338.443s4.353-2.367,9.233,3.687c0,0,3.548,2.022,4.6,2.513s2.228,13.441,2.228,13.441,2.3,5.57,1.671,8.779,1.816,14.2,1.816,14.2,4.044,19.786,3.905,20.343-4.111-6.2-4.044-9.542-3.342-13.792-3.826-14.422-3.832-18.526-3.832-18.526-2.718-7.592-4.456-10.1-3.905-7.265-4.807-8.083a8.616,8.616,0,0,0-2.579-1.393Z" transform="translate(-157.211 -301.228)" fill="#192534"/>
    <path id="Path_37" data-name="Path 37" d="M208.525,493.738c-1.211,2.652-2.246,15.965-2.942,20.191-.993-1.7-2.192-3.729-2.591-4.359a52.938,52.938,0,0,1-2.422-6.212c.787-1.913,2.961-7.4,2.961-9.409,0-2.458,3.972-5.54,3.972-5.54A4.608,4.608,0,0,1,208.525,493.738Z" transform="translate(-160.794 -360.579)" opacity="0.1"/>
    <path id="Path_38" data-name="Path 38" d="M169.71,563.376s9.191-3.917,11.909-1.15S169.71,563.376,169.71,563.376Z" transform="translate(-148.618 -389.314)" opacity="0.1"/>
    <path id="Path_39" data-name="Path 39" d="M173.834,567.36s-9.3,5.225-6.109,6.115S173.834,567.36,173.834,567.36Z" transform="translate(-147.572 -391.73)" opacity="0.1"/>
    <path id="Path_40" data-name="Path 40" d="M222.328,559.85s-3.966.266-2.452,1.047S222.328,559.85,222.328,559.85Z" transform="translate(-168.275 -388.767)" opacity="0.1"/>
    <path id="Path_41" data-name="Path 41" d="M226.1,561.84c-.055.26-11.546,3.972-9.3,5.643S226.1,561.84,226.1,561.84Z" transform="translate(-167.083 -389.552)" opacity="0.1"/>
    <path id="Path_42" data-name="Path 42" d="M172,612.913c1.725-.266,11.34-4.7,7.574-1.52A7.489,7.489,0,0,1,172,612.913Z" transform="translate(-149.521 -408.652)" opacity="0.1"/>
    <path id="Path_43" data-name="Path 43" d="M179.8,620.43s.836,3.239,4.026,2.821S179.8,620.43,179.8,620.43Z" transform="translate(-152.599 -412.669)" opacity="0.1"/>
    <path id="Path_44" data-name="Path 44" d="M175.4,629.859c.575-.158,7.423-3.294,7.574-1.816s-6.527,4.02-7.047,3.239A2.8,2.8,0,0,1,175.4,629.859Z" transform="translate(-150.863 -415.518)" opacity="0.1"/>
    <path id="Path_45" data-name="Path 45" d="M212,624.277c.835-.055,8.67-2.561,10.238-.315Z" transform="translate(-165.304 -413.695)" opacity="0.1"/>
    <path id="Path_46" data-name="Path 46" d="M223.72,626.995a2.82,2.82,0,0,1,2.718-.605C227.795,626.995,223.72,626.995,223.72,626.995Z" transform="translate(-169.928 -414.954)" opacity="0.1"/>
    <path id="Path_47" data-name="Path 47" d="M195.08,648.9a2.337,2.337,0,0,0,1.774,1.816Z" transform="translate(-158.628 -423.903)" opacity="0.1"/>
    <g id="Group_221" data-name="Group 221">
      <path id="Path_16" data-name="Path 16" d="M187.251,656.068c-9.191,1.725-10.868-5.328-10.868-5.328s-1.144-6.272-1.562-6.739a.751.751,0,0,1-.073-.606h0a8.144,8.144,0,0,1,1.35-2.948c.575-.678.1-3.5.1-3.5l10.656-2.718a16.451,16.451,0,0,1,1.047,3.136c.1.993,1.671,5.485,1.514,6.109s.678,2.561.781,3.554,1.411,2.458,1.52,2.979a12.305,12.305,0,0,0,.605,1.374,14.132,14.132,0,0,1,.678,2.125C193.468,655.7,187.251,656.068,187.251,656.068Z" transform="translate(-150.593 -418.114)" fill="#3f3d56"/>
      <path id="Path_19" data-name="Path 19" d="M212.849,511.032c-1.15,1.719-2.458,9.245-2.458,9.245a7.871,7.871,0,0,0-.835,3.185,16.166,16.166,0,0,1-.835,4.129l-2.9,10.813a9.811,9.811,0,0,1-.781,4.91c-1.1,2.034-.993,1.411-.472,4.965s-.605,6.841-2.507,7.871.836,3.5.836,3.5-12.018,3.239-14.53,1.253,1.308-11.806,1.308-11.806-.605-8.258-.212-9.457,2.2-11.443,2.2-11.443,1.1-4.65.678-5.449.26-3.027.26-3.027,1.774-2.513,1.617-3.293a4.827,4.827,0,0,1,.527-2.192s-5.328-8.149-4.843-9.687a8.7,8.7,0,0,0-.206-3.966s-.672-1.156-1.483-2.537c-.993-1.7-2.192-3.729-2.591-4.359a52.94,52.94,0,0,1-2.422-6.212c-.291-.842-.484-1.417-.484-1.417s-.842,15.36-1.568,16.952-1.816,13.925-1.816,13.925a8.724,8.724,0,0,0-.527,3.451c.109,1.931-1.671,10.341-1.671,10.341s-.781,5.958-.26,7.526.1,13.108.1,13.108,2.876,2.246,3.633,3.972-.1,6.424-.1,6.424-8.361,4.183-12.072,3.088-2.192-7.423-2.192-7.423-2.506-4.178-2.506-5.794a65.6,65.6,0,0,0-.89-6.587c-3.185-5.849-1.931-20.058-2.452-21.19s1.1-5.449,2.422-7.362.787-7.156,0-8.676.787-6.739.787-6.739-1.514-10.135-1.465-11.7-1.3-6.212-1.3-6.212-1.362-2.422-1.047-3.136-1.047-2.609-.678-3.445-.315-3.4-.993-4.916A29.236,29.236,0,0,1,157,466.853c-.321-1.816-.557-3.39-.557-3.39l8.621-6.95,21.384-5.612,8.1-2.609,7.871,12.43s.811,1.3,1.532,2.8a8.5,8.5,0,0,1,1.078,3.633,5.019,5.019,0,0,0,.733,3.239s4.7,14.888,4.6,19.168,1.671,13.689,1.671,13.689S214,509.306,212.849,511.032Z" transform="translate(-143.382 -344.749)" fill="#192534"/>
      <path id="Path_48" data-name="Path 48" d="M239.336,645.982c-.521,2.143-7.834,2.349-11.334,1.774s-10.765-2.664-10.765-2.664-7.622-.727-9.869-1.671-.472-3.342-.472-3.342v-.224c-.055-.872-.206-4.044.333-4.9.605-.987.26-4.238.26-4.238s10.813,2.089,11.019,1.1a5.544,5.544,0,0,1,2.664-2.719c.781-.3,1.362,2.616,1.362,2.616s4.91,4.177,5.225,5.691,3.76,2.3,3.76,2.3A58.582,58.582,0,0,1,238.1,641.9a2.536,2.536,0,0,1,1.441,2.028,5.642,5.642,0,0,1-.206,2.059Z" transform="translate(-163.028 -416.08)" fill="#3f3d56"/>
    </g>
    <path id="Path_49" data-name="Path 49" d="M239.336,653.007c-.521,2.143-7.834,2.349-11.334,1.774s-10.765-2.664-10.765-2.664-7.622-.727-9.869-1.671-.472-3.342-.472-3.342v-.224l10.934,2.422s5.382,2.3,8.827,2.3c3.027,0,9.754,1.211,12.884-.605A5.642,5.642,0,0,1,239.336,653.007Z" transform="translate(-163.028 -423.106)" opacity="0.1"/>
    <path id="Path_50" data-name="Path 50" d="M234.789,643.38s-.521,3.445-2.609,4.6Z" transform="translate(-173.266 -421.725)" opacity="0.1"/>
    <path id="Path_51" data-name="Path 51" d="M197.56,298.475a3.7,3.7,0,0,1-.605.26c-.981.26-1.937-.4-2.809-.926s-2.071-.92-2.827-.236c-.981.89-.266,2.8-1.277,3.663-.642.545-1.659.357-2.373.805a3.385,3.385,0,0,0-1.108,2.276c-.182.848-.539,1.816-1.368,2.065s-1.6-.3-2.422-.266c-.169,0-.363.03-.478-.1a.5.5,0,0,1-.085-.375,8.027,8.027,0,0,0-.26-3.027,2.906,2.906,0,0,0-2.125-1.992c-1.465-.224-2.7,1.06-3.566,2.27a37.245,37.245,0,0,0-2.47,3.978,2.507,2.507,0,0,0-.121.272A12.6,12.6,0,0,1,172.58,302a12.744,12.744,0,0,1,24.992-3.53Z" transform="translate(-149.75 -281.997)" opacity="0.1"/>
    <path id="Path_52" data-name="Path 52" d="M174.28,297.965c.866-1.211,2.095-2.488,3.566-2.264a2.87,2.87,0,0,1,2.107,1.992,7.92,7.92,0,0,1,.266,3.027.514.514,0,0,0,.085.381c.115.121.309.1.478.1.817,0,1.635.5,2.422.266s1.211-1.211,1.374-2.064a3.226,3.226,0,0,1,1.108-2.277c.739-.46,1.725-.26,2.373-.811,1.005-.86.3-2.767,1.277-3.663.757-.678,1.962-.291,2.827.236s1.816,1.211,2.809.926a9.343,9.343,0,0,0,.951-.406c1.55-.605,3.56.412,4.844-.648a3.675,3.675,0,0,0,.963-1.671,10.5,10.5,0,0,0,.708-2.664,3.578,3.578,0,0,0-.708-2.591c-.829-.981-2.228-1.211-3.287-1.943a8.065,8.065,0,0,1-2.1-2.476,9.25,9.25,0,0,0-2.04-2.537,2.991,2.991,0,0,0-3.07-.478,3.314,3.314,0,0,1-1.005.472,2.052,2.052,0,0,1-1.108-.3c-3.633-1.707-7.84-1.4-11.812-.9a15.46,15.46,0,0,0-4.656,1.126,5.588,5.588,0,0,0-3.136,3.439c-.327,1.211-.079,2.561-.466,3.766-.266.823-.811,1.526-1.12,2.331-.842,2.2.169,4.626.605,6.944.466,2.537.23,5.279,1.308,7.677.212.472.448,1.3.981.987.394-.23.775-1.568,1-1.986A37.862,37.862,0,0,1,174.28,297.965Z" transform="translate(-147.787 -277.272)" fill="#192534"/>
    <path id="Path_53" data-name="Path 53" d="M139.523,371.064l-1.883,5.364S142.1,393,144.185,396.486s5.177,7.943,5.177,7.943a19.113,19.113,0,0,0,11.14,1.4c5.994-1.211,23.473-4.323,23.473-4.323a2.331,2.331,0,0,0,2.234-.836c.763-1.114,4.735-1.671,4.735-1.671s4.6-6.66-1.047-9.469c0,0-.7,1.532-3.687.484s-3.905.836-3.905.836-4.844.975-7.592.605-9.469-.49-10.165-1.047a.89.89,0,0,0-1.259.1,7.677,7.677,0,0,1-2.234-1.259c-.557-.605-1.32.7-1.32.7s-.975-.563-.7-1.259-.908-3.342-.908-3.342a6.731,6.731,0,0,1-.206-3.13c.345-1.4-1.744-6.412-1.744-6.412a8.906,8.906,0,0,1,.279-2.507c.351-1.253-2.646-3.76-2.646-3.76s-2.924-14.21-9.124-9.542A12.185,12.185,0,0,0,139.523,371.064Z" transform="translate(-135.964 -309.541)" opacity="0.1"/>
    <path id="Path_54" data-name="Path 54" d="M214.078,415.93c-.073.49-1.6,2.422-1.047,2.785s1.465.139.605,1.259-.763,2.785-.206,2.573,1.465-2.712,1.465-3.693A10.953,10.953,0,0,0,214.078,415.93Z" transform="translate(-165.662 -331.981)" opacity="0.1"/>
    <g id="Group_6" data-name="Group 6" transform="translate(19.803 10.17)" opacity="0.1">
      <path id="Path_55" data-name="Path 55" d="M179.943,304.506a2.894,2.894,0,0,0-2.119-1.986c-1.471-.224-2.7,1.06-3.566,2.27a37.256,37.256,0,0,0-2.47,3.978c-.224.418-.605,1.75-1,1.98-.533.315-.769-.515-.981-.987-1.078-2.392-.842-5.14-1.308-7.677a43.362,43.362,0,0,1-.9-4.474c-.163,1.816.551,3.736.9,5.588.466,2.537.23,5.285,1.308,7.683.212.466.448,1.3.981.981.393-.23.775-1.562,1-1.98a37.251,37.251,0,0,1,2.47-3.978c.866-1.211,2.095-2.494,3.566-2.27a2.894,2.894,0,0,1,2.119,1.986,5.552,5.552,0,0,1,.285,1.568A7.263,7.263,0,0,0,179.943,304.506Z" transform="translate(-167.58 -295.467)"/>
      <path id="Path_56" data-name="Path 56" d="M209.992,296.516a3.675,3.675,0,0,1-.963,1.671c-1.271,1.066-3.281.061-4.843.654a9.315,9.315,0,0,1-.951.4c-.981.266-1.937-.394-2.809-.92s-2.071-.92-2.827-.236c-.981.89-.266,2.8-1.277,3.663-.648.545-1.659.357-2.373.805a3.386,3.386,0,0,0-1.108,2.276c-.182.848-.539,1.816-1.374,2.065s-1.6-.3-2.422-.266c-.17,0-.363.03-.478-.1a.356.356,0,0,1-.061-.1v.842a.5.5,0,0,0,.085.375c.115.127.309.1.478.1.817,0,1.635.5,2.422.266s1.211-1.211,1.374-2.059a3.263,3.263,0,0,1,1.108-2.282c.739-.466,1.725-.26,2.373-.805,1.011-.86.3-2.773,1.277-3.633.757-.684,1.962-.291,2.827.236s1.816,1.211,2.809.926c.333-.091.605-.285.951-.406,1.55-.605,3.56.412,4.843-.654a3.676,3.676,0,0,0,.938-1.671A10.53,10.53,0,0,0,210.7,295a4.364,4.364,0,0,0,0-.932A10.831,10.831,0,0,1,209.992,296.516Z" transform="translate(-175.834 -294.07)"/>
    </g>
    <rect id="Rectangle_15" data-name="Rectangle 15" width="76.54" height="98.906" rx="4.92" transform="translate(64.551 8.463)" fill="#2a2ac0"/>
    <ellipse id="Ellipse_12" data-name="Ellipse 12" cx="18.389" cy="18.389" rx="18.389" ry="18.389" transform="translate(84.426 49.218)" fill="#f2f2f2"/>
    <path id="Path_57" data-name="Path 57" d="M318.162,474.657H263.52a16.128,16.128,0,0,1,16.108-15.407h22.425a16.127,16.127,0,0,1,16.108,15.4Z" transform="translate(-188.02 -367.289)" fill="#f2f2f2"/>
    <path id="Path_58" data-name="Path 58" d="M223.23,408.359s8.288-5.449,12.3-2.749,10.553,6.478,4.111,9.227-15.336,2.216-15.336,2.216Z" transform="translate(-169.735 -327.613)" fill="#fec2be"/>
    <path id="Path_59" data-name="Path 59" d="M138.853,371.036,137,376.4s4.456,16.577,6.545,20.058,5.128,7.943,5.128,7.943a19.113,19.113,0,0,0,11.14,1.4c5.994-1.211,23.473-4.323,23.473-4.323a2.331,2.331,0,0,0,2.234-.836c.763-1.12,4.759-1.689,4.759-1.689s4.6-6.66-1.047-9.469c0,0-.7,1.532-3.687.484s-3.905.836-3.905.836-4.874.975-7.592.605-9.469-.49-10.165-1.047a.89.89,0,0,0-1.253.073,7.678,7.678,0,0,1-2.234-1.259c-.557-.605-1.32.7-1.32.7s-.975-.563-.7-1.259-.908-3.342-.908-3.342a6.733,6.733,0,0,1-.206-3.13c.345-1.4-1.744-6.412-1.744-6.412a8.9,8.9,0,0,1,.278-2.506c.351-1.253-2.646-3.76-2.646-3.76s-2.924-14.21-9.124-9.542A12.271,12.271,0,0,0,138.853,371.036Z" transform="translate(-135.712 -309.513)" fill="#192534"/>
  </g>
</svg>
