<svg xmlns="http://www.w3.org/2000/svg" width="220.221" height="245.337" viewBox="0 0 220.221 245.337">
  <g id="Group_14" data-name="Group 14" transform="translate(0)">
    <g id="Group_10" data-name="Group 10" transform="translate(129.796 0)">
      <path id="Path_60" data-name="Path 60" d="M834.193,156.708a1.141,1.141,0,0,0-1.14,1.139v44.663a1.141,1.141,0,0,0,1.14,1.139H886.36a1.141,1.141,0,0,0,1.14-1.139V157.848a1.141,1.141,0,0,0-1.14-1.139Z" transform="translate(-809.736 -156.708)" fill="#e6e6e6"/>
      <path id="Path_61" data-name="Path 61" d="M855.7,231.709a.5.5,0,0,0,0,.982h38.166a.5.5,0,0,0,0-.982Z" transform="translate(-824.007 -204.826)" fill="#fff"/>
      <path id="Path_62" data-name="Path 62" d="M854.39,247.982a.5.5,0,0,0,0,.982h38.167a.5.5,0,0,0,0-.982Z" transform="translate(-823.168 -215.266)" fill="#fff"/>
      <path id="Path_63" data-name="Path 63" d="M855.7,264.256a.5.5,0,0,0,0,.982h38.166a.5.5,0,0,0,0-.982Z" transform="translate(-824.007 -225.707)" fill="#fff"/>
      <path id="Path_64" data-name="Path 64" d="M855.7,177.384a.5.5,0,0,0,0,.982h38.167a.5.5,0,0,0,0-.982Z" transform="translate(-824.007 -169.973)" fill="#fff"/>
      <path id="Path_65" data-name="Path 65" d="M854.39,193.658a.5.5,0,0,0,0,.982h38.167a.5.5,0,0,0,0-.982Z" transform="translate(-823.167 -180.414)" fill="#fff"/>
      <path id="Path_66" data-name="Path 66" d="M855.7,209.931a.5.5,0,0,0,0,.982h38.167a.5.5,0,0,0,0-.982Z" transform="translate(-824.007 -190.854)" fill="#fff"/>
      <path id="Path_67" data-name="Path 67" d="M769.139,207.662A1.141,1.141,0,0,0,768,208.8v44.663a1.141,1.141,0,0,0,1.139,1.139h52.168a1.14,1.14,0,0,0,1.139-1.139V208.8a1.14,1.14,0,0,0-1.139-1.139Z" transform="translate(-768 -189.398)" fill="#2a2ac0"/>
      <path id="Path_68" data-name="Path 68" d="M790.646,282.663a.5.5,0,0,0,0,.982h38.167a.5.5,0,0,0,0-.982Z" transform="translate(-782.271 -237.516)" fill="#fff"/>
      <path id="Path_69" data-name="Path 69" d="M789.337,298.936a.5.5,0,0,0,0,.982H827.5a.5.5,0,0,0,0-.982Z" transform="translate(-781.432 -247.956)" fill="#fff"/>
      <path id="Path_70" data-name="Path 70" d="M790.646,315.21a.5.5,0,0,0,0,.982h38.167a.5.5,0,0,0,0-.982Z" transform="translate(-782.271 -258.397)" fill="#fff"/>
      <path id="Path_71" data-name="Path 71" d="M790.646,228.339a.5.5,0,0,0,0,.982h38.166a.5.5,0,0,0,0-.982Z" transform="translate(-782.272 -202.664)" fill="#fff"/>
      <path id="Path_72" data-name="Path 72" d="M789.337,244.612a.5.5,0,0,0,0,.982H827.5a.5.5,0,0,0,0-.982Z" transform="translate(-781.432 -213.104)" fill="#fff"/>
      <path id="Path_73" data-name="Path 73" d="M790.646,260.886a.5.5,0,0,0,0,.982h38.167a.5.5,0,0,0,0-.982Z" transform="translate(-782.271 -223.545)" fill="#fff"/>
      <g id="Group_223" data-name="Group 223">
        <path id="Path_74" data-name="Path 74" d="M823.848,514.806l.273,5.2,5.742-.547-.547-5.195Z" transform="translate(-749.013 -329.93)" fill="#fbbebe"/>
        <path id="Path_75" data-name="Path 75" d="M762.058,498.023l.274,5.2,5.742-.547-.547-5.2Z" transform="translate(-709.371 -319.162)" fill="#fbbebe"/>
        <path id="Path_76" data-name="Path 76" d="M938.412,475.3l-20.781,3.555-1.367,37.733L910.8,540.649l8.75,3.828,8.476-23.788,3.008-21.054,2.187,21.054.274,26.523,13.4-.82-3.2-51.937A48.321,48.321,0,0,0,938.412,475.3Z" transform="translate(-859.613 -361.104)" fill="#2f2e41"/>
        <path id="Path_77" data-name="Path 77" d="M973.686,678.87s-1.914-2.187-1.914-1.367-1.094,8.75-1.094,8.75,7.382,2.187,7.382,3.555,10.664,3.554,10.39.82-9.57-13.125-9.57-13.125S975.053,676.956,973.686,678.87Z" transform="translate(-898.031 -490.713)" fill="#2f2e41"/>
        <path id="Path_78" data-name="Path 78" d="M907,660.931s-.583-2.848-.988-2.134-5.275,7.066-5.275,7.066,5.337,5.55,4.661,6.739,7.514,8.36,8.627,5.848-1.833-16.139-1.833-16.139S909.132,659.942,907,660.931Z" transform="translate(-853.157 -478.756)" fill="#2f2e41"/>
      </g>
      <path id="Path_79" data-name="Path 79" d="M764.106,206.229l15.138,1.447,5.046-13.75L769.8,190.435Z" transform="translate(-710.685 -122.176)" fill="#2f2e41"/>
      <circle id="Ellipse_14" data-name="Ellipse 14" cx="7.656" cy="7.656" r="7.656" transform="translate(58.156 65.935)" fill="#fbbebe"/>
      <path id="Path_80" data-name="Path 80" d="M930.71,374.987s0,5.2-4.1,7.383,9.843,4.648,9.843,4.648l1.367-4.648s-4.1-1.914-.547-6.289Z" transform="translate(-869.273 -296.748)" fill="#fbbebe"/>
      <path id="Path_81" data-name="Path 81" d="M924.431,390.79s-5.008,3.1-9.2.32l-1.734-.32-5.2,1.094-2.461,9.3,9.3,23.241s16.132,2.734,19.413-3.281l-1.914-24.609-5.2-6.289Z" transform="translate(-856.431 -306.536)" fill="#575a89"/>
      <path id="Path_82" data-name="Path 82" d="M805.281,193.245l9.023-12.578-.82-1.367-11.758-6.015v-3.828l18.32,4.922,1.239,1.964-10.81,23.465Z" transform="translate(-734.82 -108.717)" fill="#575a89"/>
      <path id="Path_83" data-name="Path 83" d="M720.674,213.916l-.547-.273-13.671-.547,10.39-9.023-3.281-4.1L697.98,211.728v2.734l22.148,9.3Z" transform="translate(-668.261 -128.294)" fill="#575a89"/>
      <path id="Path_84" data-name="Path 84" d="M894.013,351.357l1.914-1.094s4.1-5.469,5.742-3.281-3.828,6.289-3.828,6.289l-3.008,1.094Z" transform="translate(-848.845 -278.449)" fill="#fbbebe"/>
      <path id="Path_85" data-name="Path 85" d="M937.207,325.517l-3.008-1.641s-9.023.82-7.929,2.734,7.383.273,7.383.273l3.555,1.094Z" transform="translate(-869.481 -263.957)" fill="#fbbebe"/>
      <path id="Path_86" data-name="Path 86" d="M921.825,338.092s-3.514,1.172-3.693,5.8a8.2,8.2,0,0,0,.244,2.2,6.44,6.44,0,0,1-1.208,5,49.509,49.509,0,0,0-2.81,4.833l-.011.022,3.86.482.821-6.4a31.856,31.856,0,0,1,2.53-8.982l.027-.06a6.214,6.214,0,0,0,5.066,3.136l-1.206-1.206s5.307,2.171,7.237,2.171c0,0,1.447.965,0,2.412s-4.342,4.825-2.654,7.478.241,3.377.241,3.377l2.654-1.447,1.206-.724v.965l6.272-.724s1.689-.241-1.93-4.342a4.3,4.3,0,0,1-.538-2.966,6.929,6.929,0,0,0,.263-3.24C937.385,341.355,934.2,332.364,921.825,338.092Z" transform="translate(-861.891 -271.891)" fill="#2f2e41"/>
    </g>
    <g id="Group_11" data-name="Group 11" transform="translate(0 41.251)">
      <g id="Group_13" data-name="Group 13" transform="translate(70.09 31.594)">
        <path id="Path_88" data-name="Path 88" d="M451.9,381.492H366.665c-.444,0-.8-.54-.8-1.207s.36-1.207.8-1.207H451.9c.444,0,.8.54.8,1.207S452.341,381.492,451.9,381.492Z" transform="translate(-365.86 -379.079)" fill="#f4f2f2"/>
        <path id="Path_89" data-name="Path 89" d="M451.9,400.594H366.665c-.444,0-.8-.54-.8-1.207s.36-1.207.8-1.207H451.9c.444,0,.8.54.8,1.207S452.341,400.594,451.9,400.594Z" transform="translate(-365.86 -388.527)" fill="#f4f2f2"/>
        <path id="Path_90" data-name="Path 90" d="M451.9,419.7H366.665c-.444,0-.8-.54-.8-1.207s.36-1.207.8-1.207H451.9c.444,0,.8.54.8,1.207s-.36,1.207-.8,1.207Z" transform="translate(-365.86 -397.975)" fill="#f4f2f2"/>
        <path id="Path_91" data-name="Path 91" d="M451.9,438.652H366.665c-.444,0-.8-.54-.8-1.207s.36-1.207.8-1.207H451.9c.444,0,.8.54.8,1.207S452.341,438.652,451.9,438.652Z" transform="translate(-365.86 -407.351)" fill="#f4f2f2"/>
        <path id="Path_92" data-name="Path 92" d="M451.9,457.754H366.665c-.444,0-.8-.54-.8-1.207s.36-1.207.8-1.207H451.9c.444,0,.8.54.8,1.207S452.341,457.754,451.9,457.754Z" transform="translate(-365.86 -416.799)" fill="#f4f2f2"/>
        <path id="Path_93" data-name="Path 93" d="M556.763,476.01a.345.345,0,0,0-.344.345v9.134a.345.345,0,0,0,.344.345h31.952a.345.345,0,0,0,.344-.345v-9.134a.345.345,0,0,0-.344-.345Z" transform="translate(-503.597 -427.022)" fill="#f4f2f2"/>
      </g>
      <path id="Path_94" data-name="Path 94" d="M202.009,506.187s-2.638,31.72-3.2,38.517a48.341,48.341,0,0,1-2.832,12.461,11.718,11.718,0,0,0-1.133,4.531v28.888a1.684,1.684,0,0,0-1.7,2.266c.566,2.266,1.133,6.231,1.133,6.231h8.5a1.754,1.754,0,0,1,1.133-2.266c1.7-.567,0-5.1,0-5.1l9.063-33.986,13.594-28.321s7.93,25.489,9.629,28.321c0,0,6.231,31.72,7.363,34.552s1.7,2.832,1.133,3.965a2.528,2.528,0,0,0,0,2.832c.566.566,11.328,0,11.328,0l-2.832-40.216-5.1-48.146-26.056-7.93Z" transform="translate(-186.037 -408.673)" fill="#2f2e41"/>
      <path id="Path_95" data-name="Path 95" d="M193.641,679.182s-2.832-10.2-7.364-2.266-4.531,10.762-4.531,10.762-7.364,10.762,2.832,9.629,7.93-6.231,7.93-6.231,3.965-2.266,3.965-3.965S193.641,679.182,193.641,679.182Z" transform="translate(-179.175 -493.305)" fill="#2f2e41"/>
      <path id="Path_96" data-name="Path 96" d="M295.81,676.941s2.832-10.2,7.364-2.266,4.531,10.762,4.531,10.762,7.364,10.762-2.832,9.629-7.93-6.231-7.93-6.231-3.965-2.266-3.965-3.965S295.81,676.941,295.81,676.941Z" transform="translate(-235.463 -492.197)" fill="#2f2e41"/>
      <path id="Path_97" data-name="Path 97" d="M243.045,358.209s1.133,7.364-2.266,9.063,7.364,7.93,10.2,7.93,7.93-5.664,7.93-5.664-2.832-8.5-2.266-10.2Z" transform="translate(-209.321 -337.162)" fill="#ffb9b9"/>
      <circle id="Ellipse_15" data-name="Ellipse 15" cx="11.895" cy="11.895" r="11.895" transform="translate(28.06 2.921)" fill="#ffb9b9"/>
      <path id="Path_98" data-name="Path 98" d="M257.419,384.65l-14.16-8.579s-8.057,9.146-16.773-1.05l-14.947,3.965L213.8,417.5s-3.4,15.294-2.266,18.126-2.832,3.965-1.7,4.531,0,4.531,0,4.531,22.091,11.329,46.447,2.832l-2.266-7.364a5.943,5.943,0,0,0-1.133-5.664s2.266-3.4-.566-6.231c0,0,1.133-5.1-1.7-7.363l-.566-7.93,1.7-3.965Z" transform="translate(-194.24 -345.478)" fill="#cfcce0"/>
      <path id="Path_99" data-name="Path 99" d="M239.876,325.857s-1.418,3.069,4.254,1.841c0,0,2.127,1.228,2.127-.614,0,0,2.836,3.069,3.545,1.228s2.127.614,2.127.614l1.418-3.069,1.418,1.841h4.963s1.418-12.276-15.6-11.048-8.646,20.678-8.646,20.678.137-3.491,1.555-1.65S239.876,325.857,239.876,325.857Z" transform="translate(-206.008 -316.564)" fill="#2f2e41"/>
      <path id="Path_100" data-name="Path 100" d="M303.861,438.905l.566,11.895s2.266,22.091-2.266,31.72v5.1s-1.133,13.028-6.8,12.461,1.7-18.692,1.7-18.692l-1.133-24.923L294.8,442.3Z" transform="translate(-235.585 -377.076)" fill="#ffb9b9"/>
      <path id="Path_101" data-name="Path 101" d="M286.868,394.3l5.65-.918a27.587,27.587,0,0,1,7.944,14.512c1.7,9.063,2.266,10.762,2.266,10.762l-13.594,3.4-7.364-14.161Z" transform="translate(-229.92 -354.557)" fill="#cfcce0"/>
      <g id="Group_12" data-name="Group 12" transform="translate(32.225 43.095)">
        <path id="Path_102" data-name="Path 102" d="M243.564,401.835c-.346,0-.626.45-.626,1.006v76.827c0,.555.28,1.005.626,1.006H352.74c.346,0,.626-.45.626-1.006V402.84c0-.555-.28-1.005-.626-1.006Z" transform="translate(-242.938 -401.835)" fill="#2a2ac0"/>
        <path id="Path_103" data-name="Path 103" d="M352.278,429.463H290.085c-.324,0-.587-.54-.587-1.207s.263-1.207.587-1.207h62.193c.324,0,.587.54.587,1.207S352.6,429.463,352.278,429.463Z" transform="translate(-265.967 -414.307)" fill="#fff"/>
        <path id="Path_104" data-name="Path 104" d="M352.278,448.565H290.085c-.324,0-.587-.54-.587-1.207s.263-1.207.587-1.207h62.193c.324,0,.587.54.587,1.207S352.6,448.565,352.278,448.565Z" transform="translate(-265.967 -423.754)" fill="#fff"/>
        <path id="Path_105" data-name="Path 105" d="M352.278,467.667H290.085c-.324,0-.587-.54-.587-1.207s.263-1.207.587-1.207h62.193c.324,0,.587.54.587,1.207S352.6,467.667,352.278,467.667Z" transform="translate(-265.967 -433.202)" fill="#fff"/>
        <path id="Path_106" data-name="Path 106" d="M352.278,486.624H290.085c-.324,0-.587-.54-.587-1.207s.263-1.207.587-1.207h62.193c.324,0,.587.54.587,1.207S352.6,486.624,352.278,486.624Z" transform="translate(-265.967 -442.579)" fill="#fff"/>
        <path id="Path_107" data-name="Path 107" d="M352.278,505.725H290.085c-.324,0-.587-.54-.587-1.207s.263-1.207.587-1.207h62.193c.324,0,.587.54.587,1.207S352.6,505.725,352.278,505.725Z" transform="translate(-265.967 -452.026)" fill="#fff"/>
        <path id="Path_108" data-name="Path 108" d="M480.4,523.982a.345.345,0,0,0-.344.344v9.134a.345.345,0,0,0,.344.344h31.952a.345.345,0,0,0,.345-.344v-9.134a.345.345,0,0,0-.345-.344Z" transform="translate(-420.123 -462.25)" fill="#fff"/>
      </g>
      <path id="Path_109" data-name="Path 109" d="M194.669,411.517s-5.1,21.524,1.133,21.524,20.958-24.356,20.958-24.356,15.293-7.93,9.063-10.762-14.161,4.531-14.161,4.531l-9.15,12.7-.479-6.473Z" transform="translate(-185.867 -356.484)" fill="#ffb9b9"/>
      <path id="Path_110" data-name="Path 110" d="M206.269,386.265l-3.4-3.4s-6.8,3.965-7.363,7.93-3.4,16.426-3.4,16.426l10.479.85,3.4-5.1Z" transform="translate(-185.572 -349.358)" fill="#cfcce0"/>
    </g>
  </g>
</svg>
