<svg xmlns="http://www.w3.org/2000/svg" width="217.285" height="268.852" viewBox="0 0 217.285 268.852">
  <g id="Group_3684" data-name="Group 3684" transform="translate(-682.138 -1364.629)">
    <g id="Group_20" data-name="Group 20" transform="translate(682.138 1364.629)">
      <path id="Path_178" data-name="Path 178" d="M507.406,418.368a.866.866,0,0,0-.356,1.17l43.181,80.879a.866.866,0,0,0,1.17.356l61.041-32.589a.866.866,0,0,0,.356-1.17l-43.181-80.879a.866.866,0,0,0-1.17-.356Z" transform="translate(-453.847 -340.024)" fill="#3f3d56"/>
      <path id="Path_179" data-name="Path 179" d="M516.748,429.067l39.515,74.011,54.174-28.923-39.515-74.012Zm-3.433,1.833.008,0-.008,0Z" transform="translate(-457.514 -348.36)" fill="#f4f2f2"/>
      <path id="Path_180" data-name="Path 180" d="M552.6,458.583c-.842.449-1.021,1.761-.4,2.924s1.81,1.743,2.652,1.294l39.676-21.183c.842-.449,1.021-1.761.4-2.924s-1.81-1.743-2.652-1.294Z" transform="translate(-479.707 -369.74)" fill="#2a2ac0"/>
      <path id="Path_181" data-name="Path 181" d="M564.133,480.188c-.842.449-1.021,1.761-.4,2.924s1.81,1.744,2.652,1.294l39.677-21.183c.842-.449,1.021-1.761.4-2.924s-1.81-1.744-2.652-1.294Z" transform="translate(-486.353 -382.188)" fill="#2a2ac0"/>
      <path id="Path_182" data-name="Path 182" d="M575.668,501.792c-.842.449-1.021,1.761-.4,2.924s1.81,1.743,2.652,1.294L617.6,484.827c.842-.449,1.021-1.761.4-2.924s-1.81-1.743-2.652-1.294Z" transform="translate(-492.999 -394.636)" fill="#2a2ac0"/>
      <path id="Path_183" data-name="Path 183" d="M587.2,523.4c-.842.449-1.021,1.761-.4,2.924s1.81,1.743,2.652,1.294l39.677-21.183c.841-.449,1.021-1.761.4-2.924s-1.81-1.744-2.652-1.294Z" transform="translate(-499.645 -407.085)" fill="#2a2ac0"/>
      <path id="Path_184" data-name="Path 184" d="M598.737,545c-.842.449-1.021,1.761-.4,2.924s1.81,1.743,2.652,1.294l39.677-21.183c.842-.449,1.021-1.761.4-2.924s-1.81-1.744-2.652-1.294Z" transform="translate(-506.291 -419.533)" fill="#2a2ac0"/>
      <path id="Path_185" data-name="Path 185" d="M397.312,225.3l35.952,2.2,10.068-30.026L411.8,190.8Z" transform="translate(-297.161 -181.896)" fill="#2f2e41"/>
      <circle id="Ellipse_29" data-name="Ellipse 29" cx="14.379" cy="14.379" r="14.379" transform="translate(111.7 7.051)" fill="#ffb8b8"/>
      <path id="Path_186" data-name="Path 186" d="M473.568,258.538l-23.309,3.814-6.145-24.369L460.43,236.5Z" transform="translate(-324.128 -208.226)" fill="#ffb8b8"/>
      <path id="Path_187" data-name="Path 187" d="M677.053,570.73l.093,1.119a115.6,115.6,0,0,1-56.354,4.772l-.123,1.987a6.8,6.8,0,0,1-9.235,5.908l4.018-8.9,5.081-11.269,3.331-7.387-1.2-25.555-.127-2.645-.157-3.374,2.17-.013,15.427-.093,14.7-.093,2.242-.013C670.979,542.463,682.579,556.516,677.053,570.73Z" transform="translate(-514.051 -420.4)" fill="#2f2e41"/>
      <path id="Path_188" data-name="Path 188" d="M667.352,434.757l-34.328,3.814-1.271-23.733c-4.029-10.275-1.369-19.446,6.992-27.676l1.7-6.728a9.961,9.961,0,0,1,7.358-7.252h0a35.468,35.468,0,0,1,19.126-4.538h0a14.272,14.272,0,0,1,9.037,14.4C674.488,401.7,671.837,419.158,667.352,434.757Z" transform="translate(-524.693 -330.198)" fill="#2a2ac0"/>
      <path id="Path_189" data-name="Path 189" d="M641.062,430.1l-.275,2.081-4.386,33.1-2.322,4.98-.759,1.627-17.685,37.893-.742,11.824-.123,1.988a6.793,6.793,0,1,1-13.024-3.085l.708-1.666,3.857-9.061,10.455-33.4.86-2.755,1.026-3.276,2.916-9.311,4.645-28.632.441-2.729Z" transform="translate(-508.15 -365.374)" fill="#ffb8b8"/>
      <path id="Path_190" data-name="Path 190" d="M675.336,403.091c-6.66-2.393-13.05-2.648-19.071,0l1.965-17.035a8.125,8.125,0,0,1,7.693-8.389h0a8.125,8.125,0,0,1,8.542,7.714Z" transform="translate(-539.882 -335.403)" fill="#6c63ff"/>
      <path id="Path_191" data-name="Path 191" d="M632.981,282.4s-7.435,2.713-7.626,12.577a17.806,17.806,0,0,0,.658,4.912c.482,1.813.869,5.746-2.373,10.99a101.649,101.649,0,0,0-5.735,10.559h0l8.371.808,1.384-13.878a68.88,68.88,0,0,1,4.921-19.566l.054-.13s3.841,6.675,11.14,6.469l-2.68-2.533s9.142,3.443,14.114,4.134a3.148,3.148,0,0,1,1.9,5.235l-.089.1c-3.04,3.216-9.091,10.692-5.28,16.324s.727,7.285.727,7.285l5.647-3.29,2.563-1.638.059,2.086,13.512-1.946s3.635-.624-4.435-9.267c0,0-2.162-3.384-1.342-6.378a14.977,14.977,0,0,0,.372-7.019C666.81,288.5,659.388,269.265,632.981,282.4Z" transform="translate(-517.779 -277.957)" fill="#2f2e41"/>
      <path id="Path_192" data-name="Path 192" d="M220.966,418.817a.424.424,0,0,0-.3.519l11.566,43.409a.424.424,0,0,0,.519.3l32.762-8.729a.424.424,0,0,0,.3-.519l-11.566-43.409a.424.424,0,0,0-.519-.3Z" transform="translate(-220.652 -354.082)" fill="#f4f2f2"/>
      <path id="Path_193" data-name="Path 193" d="M239.613,439.878a1.051,1.051,0,0,0-.518,1.35c.166.624.669,1.034,1.121.914l21.3-5.674a1.051,1.051,0,0,0,.518-1.35c-.166-.624-.669-1.034-1.121-.914Z" transform="translate(-231.248 -367.973)" fill="#2a2ac0"/>
      <path id="Path_194" data-name="Path 194" d="M242.7,451.473a1.051,1.051,0,0,0-.517,1.35c.166.624.669,1.034,1.121.914l21.3-5.674a1.051,1.051,0,0,0,.517-1.35c-.166-.624-.669-1.034-1.121-.914Z" transform="translate(-233.028 -374.655)" fill="#2a2ac0"/>
      <path id="Path_195" data-name="Path 195" d="M245.792,463.069a1.051,1.051,0,0,0-.517,1.35c.166.624.669,1.034,1.121.914l21.3-5.674a1.051,1.051,0,0,0,.518-1.35c-.166-.624-.669-1.034-1.121-.914Z" transform="translate(-234.808 -381.336)" fill="#2a2ac0"/>
      <path id="Path_196" data-name="Path 196" d="M248.881,474.664a1.051,1.051,0,0,0-.517,1.35c.166.624.669,1.034,1.121.914l21.3-5.674a1.051,1.051,0,0,0,.517-1.35c-.166-.624-.669-1.034-1.121-.914Z" transform="translate(-236.588 -388.017)" fill="#2a2ac0"/>
      <path id="Path_197" data-name="Path 197" d="M251.971,486.26a1.051,1.051,0,0,0-.517,1.35c.166.624.669,1.034,1.121.914l21.3-5.674a1.051,1.051,0,0,0,.518-1.35c-.166-.624-.669-1.034-1.121-.914Z" transform="translate(-238.368 -394.698)" fill="#2a2ac0"/>
      <path id="Path_198" data-name="Path 198" d="M255.06,497.855a1.051,1.051,0,0,0-.517,1.35c.166.624.669,1.034,1.121.914l21.3-5.674a1.051,1.051,0,0,0,.517-1.35c-.166-.624-.669-1.034-1.121-.914Z" transform="translate(-240.148 -401.38)" fill="#2a2ac0"/>
      <path id="Path_206" data-name="Path 206" d="M223.925,335.011a.424.424,0,0,0-.174.573l21.158,39.629a.424.424,0,0,0,.573.174l29.909-15.968a.424.424,0,0,0,.174-.573l-21.158-39.629a.424.424,0,0,0-.573-.174Z" transform="translate(-222.409 -301.602)" fill="#fff"/>
      <path id="Path_207" data-name="Path 207" d="M228.5,340.254l19.362,36.264,26.544-14.172-19.362-36.264Zm-1.682.9,0,0,0,0Z" transform="translate(-224.206 -305.686)" fill="#f4f2f2"/>
      <path id="Path_208" data-name="Path 208" d="M246.069,354.716a1.051,1.051,0,0,0-.2,1.433c.3.57.887.854,1.3.634L266.613,346.4a1.051,1.051,0,0,0,.2-1.432c-.3-.57-.887-.854-1.3-.634Z" transform="translate(-235.079 -316.162)" fill="#2a2ac0"/>
      <path id="Path_209" data-name="Path 209" d="M251.72,365.3a1.051,1.051,0,0,0-.2,1.432c.3.57.887.854,1.3.634l19.441-10.379a1.051,1.051,0,0,0,.2-1.432c-.3-.57-.887-.854-1.3-.634Z" transform="translate(-238.336 -322.261)" fill="#2a2ac0"/>
      <path id="Path_210" data-name="Path 210" d="M257.372,375.887a1.051,1.051,0,0,0-.2,1.432c.3.57.887.854,1.3.634l19.441-10.379a1.051,1.051,0,0,0,.2-1.433c-.3-.57-.887-.854-1.3-.634Z" transform="translate(-241.592 -328.36)" fill="#2a2ac0"/>
      <path id="Path_211" data-name="Path 211" d="M263.024,386.473a1.051,1.051,0,0,0-.2,1.433c.3.57.887.854,1.3.634l19.441-10.379a1.051,1.051,0,0,0,.2-1.433c-.3-.57-.887-.854-1.3-.634Z" transform="translate(-244.849 -334.46)" fill="#2a2ac0"/>
      <path id="Path_212" data-name="Path 212" d="M268.676,397.059a1.051,1.051,0,0,0-.2,1.432c.3.57.887.854,1.3.634l19.441-10.379a1.051,1.051,0,0,0,.2-1.432c-.3-.57-.887-.854-1.3-.634Z" transform="translate(-248.105 -340.559)" fill="#2a2ac0"/>
      <path id="Path_213" data-name="Path 213" d="M274.327,407.644a1.051,1.051,0,0,0-.2,1.432c.3.57.887.854,1.3.634l19.441-10.379a1.051,1.051,0,0,0,.2-1.433c-.3-.57-.887-.854-1.3-.634Z" transform="translate(-251.362 -346.659)" fill="#2a2ac0"/>
      <path id="Path_214" data-name="Path 214" d="M878.042,595.666a.424.424,0,0,0-.58.149l-22.855,38.675a.424.424,0,0,0,.149.581l29.189,17.249a.424.424,0,0,0,.58-.149L907.38,613.5a.424.424,0,0,0-.149-.58Z" transform="translate(-690.155 -452.509)" fill="#e6e6e6"/>
      <path id="Path_215" data-name="Path 215" d="M882.626,601.451l-20.914,35.391,25.9,15.309,20.914-35.392Zm-1.641-.97,0,0,0,0Z" transform="translate(-694.283 -455.317)" fill="#f4f2f2"/>
      <path id="Path_216" data-name="Path 216" d="M909.143,621.031a1.233,1.233,0,0,0-1.192,2.017l18.973,11.212a1.233,1.233,0,0,0,1.192-2.017Z" transform="translate(-720.726 -467.107)" fill="#2a2ac0"/>
      <path id="Path_217" data-name="Path 217" d="M903.038,631.362a1.233,1.233,0,0,0-1.192,2.017l18.973,11.212a1.233,1.233,0,0,0,1.192-2.017Z" transform="translate(-717.208 -473.06)" fill="#2a2ac0"/>
      <path id="Path_218" data-name="Path 218" d="M896.932,641.693a1.233,1.233,0,0,0-1.192,2.017l18.973,11.212a1.233,1.233,0,0,0,1.192-2.017Z" transform="translate(-713.69 -479.012)" fill="#2a2ac0"/>
      <path id="Path_219" data-name="Path 219" d="M890.828,652.024a1.233,1.233,0,0,0-1.192,2.017l18.973,11.212a1.233,1.233,0,0,0,1.192-2.017Z" transform="translate(-710.173 -484.965)" fill="#2a2ac0"/>
      <path id="Path_220" data-name="Path 220" d="M884.723,662.355a1.233,1.233,0,0,0-1.192,2.017L902.5,675.583a1.233,1.233,0,0,0,1.192-2.017Z" transform="translate(-706.655 -490.917)" fill="#2a2ac0"/>
      <path id="Path_221" data-name="Path 221" d="M878.618,672.686a1.233,1.233,0,0,0-1.192,2.017L896.4,685.915a1.233,1.233,0,0,0,1.192-2.017Z" transform="translate(-703.137 -496.87)" fill="#2a2ac0"/>
    </g>
    <g id="Group_224" data-name="Group 224" transform="translate(785.617 1494.04)">
      <path id="Path_74" data-name="Path 74" d="M833.327,515.12l-.431,8.186-9.048-.862.862-8.186Z" transform="translate(-808.76 -403.743)" fill="#fbbebe"/>
      <path id="Path_75" data-name="Path 75" d="M771.537,498.338l-.431,8.186-9.048-.862.862-8.186Z" transform="translate(-712.07 -396.439)" fill="#fbbebe"/>
      <path id="Path_76" data-name="Path 76" d="M924.152,475.3l32.746,5.6,2.154,59.459,8.617,37.916-13.788,6.032-13.357-37.485-4.74-33.176-3.447,33.176-.431,41.794L910.8,587.324l5.048-81.842A76.145,76.145,0,0,1,924.152,475.3Z" transform="translate(-905.833 -475.3)" fill="#2f2e41"/>
      <path id="Path_77" data-name="Path 77" d="M993.953,679.763s3.016-3.447,3.016-2.154,1.723,13.787,1.723,13.787-11.633,3.447-11.633,5.6-16.8,5.6-16.373,1.292,15.08-20.681,15.08-20.681S991.8,676.747,993.953,679.763Z" transform="translate(-970.678 -563.216)" fill="#2f2e41"/>
      <path id="Path_78" data-name="Path 78" d="M912.2,662.226s.918-4.487,1.557-3.363S922.07,670,922.07,670s-8.41,8.746-7.345,10.619-11.84,13.174-13.594,9.216,2.888-25.432,2.888-25.432S908.837,660.668,912.2,662.226Z" transform="translate(-382.96 -927.476) rotate(31)" fill="#2f2e41"/>
    </g>
  </g>
</svg>
