<svg xmlns="http://www.w3.org/2000/svg" xmlns:xlink="http://www.w3.org/1999/xlink" width="235.744" height="208.947" viewBox="0 0 235.744 208.947">
  <defs>
    <linearGradient id="linear-gradient" x1="0.5" y1="1" x2="0.5" gradientUnits="objectBoundingBox">
      <stop offset="0" stop-color="gray" stop-opacity="0.251"/>
      <stop offset="0.54" stop-color="gray" stop-opacity="0.122"/>
      <stop offset="1" stop-color="gray" stop-opacity="0.102"/>
    </linearGradient>
  </defs>
  <g id="Group_18" data-name="Group 18" transform="translate(0)">
    <path id="Path_150" data-name="Path 150" d="M267.81,317.87V466.985a5.205,5.205,0,0,0,5.206,5.205H487a5.205,5.205,0,0,0,5.206-5.205V317.87Z" transform="translate(-267.81 -286.326)" fill="#f4f2f2"/>
    <rect id="Rectangle_16" data-name="Rectangle 16" width="53.642" height="31.487" rx="8.65" transform="translate(17.757 44.892)" opacity="0.1"/>
    <rect id="Rectangle_17" data-name="Rectangle 17" width="53.642" height="31.487" rx="8.65" transform="translate(85.379 44.892)" opacity="0.1"/>
    <rect id="Rectangle_18" data-name="Rectangle 18" width="52.133" height="30.599" rx="8.65" transform="translate(18.51 45.334)" fill="#2a2ac0"/>
    <rect id="Rectangle_19" data-name="Rectangle 19" width="52.133" height="30.599" rx="8.65" transform="translate(205.886 75.933) rotate(180)" fill="#444053" opacity="0.1"/>
    <rect id="Rectangle_20" data-name="Rectangle 20" width="52.133" height="30.599" rx="8.65" transform="translate(138.265 75.933) rotate(180)" fill="#2a2ac0"/>
    <rect id="Rectangle_21" data-name="Rectangle 21" width="52.133" height="30.599" rx="8.65" transform="translate(18.51 89.534)" fill="#444053" opacity="0.1"/>
    <rect id="Rectangle_22" data-name="Rectangle 22" width="52.133" height="30.599" rx="8.65" transform="translate(205.886 120.133) rotate(180)" fill="#444053" opacity="0.1"/>
    <rect id="Rectangle_23" data-name="Rectangle 23" width="52.133" height="30.599" rx="8.65" transform="translate(138.265 120.133) rotate(180)" fill="#444053" opacity="0.1"/>
    <rect id="Rectangle_24" data-name="Rectangle 24" width="52.133" height="30.599" rx="8.65" transform="translate(18.51 133.734)" fill="#444053" opacity="0.1"/>
    <rect id="Rectangle_25" data-name="Rectangle 25" width="52.133" height="30.599" rx="8.65" transform="translate(205.886 164.336) rotate(180)" fill="#444053" opacity="0.1"/>
    <rect id="Rectangle_26" data-name="Rectangle 26" width="52.133" height="30.599" rx="8.65" transform="translate(138.265 164.336) rotate(180)" fill="#444053" opacity="0.1"/>
    <path id="Path_151" data-name="Path 151" d="M267.81,229.639V256.73h224.4V229.639A5.205,5.205,0,0,0,487,224.43H273.016A5.206,5.206,0,0,0,267.81,229.639Zm55.533,8.014A4.156,4.156,0,1,1,327.5,233.5,4.156,4.156,0,0,1,323.343,237.653Zm113.331,0a4.164,4.164,0,1,0-.007,0Z" transform="translate(-267.81 -224.43)" fill="#2a2ac0"/>
    <path id="Path_152" data-name="Path 152" d="M422.665,236.74a4.912,4.912,0,1,0,4.908,4.911,4.912,4.912,0,0,0-4.908-4.911Zm0,9.068a4.156,4.156,0,1,1,4.156-4.156A4.156,4.156,0,0,1,422.665,245.808Z" transform="translate(-367.133 -232.584)" opacity="0.1"/>
    <path id="Path_153" data-name="Path 153" d="M758.362,236.74a4.912,4.912,0,1,0,4.912,4.912A4.912,4.912,0,0,0,758.362,236.74Zm0,9.068a4.156,4.156,0,1,1,4.156-4.156A4.156,4.156,0,0,1,758.362,245.808Z" transform="translate(-589.506 -232.584)" opacity="0.1"/>
    <path id="Path_154" data-name="Path 154" d="M842.855,533.292a10.805,10.805,0,0,0-2.505-1.408.516.516,0,0,0-.219-.057,38.544,38.544,0,0,1-5.165-4.449c.338-.27.648-.533.979-.793-2.025-.965-3.15-3.177-4.243-5.172a51.021,51.021,0,0,0-11.255-14.023c-.111-.429-.763-.338-1.111-.614a.892.892,0,0,1-.246-.861c.054-.311.2-.6.274-.9a6.085,6.085,0,0,0-.057-2.194,2.689,2.689,0,0,1,.439-2.1c.155-.179.355-.317.506-.5a1.9,1.9,0,0,0,.338-1.516,5.378,5.378,0,0,0-.338-1.536q2.481-6.752,4.959-13.527c1.158-3.153,2.326-6.374,2.444-9.736a11.637,11.637,0,0,0-2.235-7.569c.3-.071.594-.145.888-.229-1.931-2.559-2.14-5.948-2.191-9.172q-.04-2.41-.165-4.824c.56.246,1.127.466,1.708.655l.54.165a18.615,18.615,0,0,0,2.677.574c.4.057.8.1,1.205.128h0q-.871-2.181-1.739-4.368a5.973,5.973,0,0,1-.54-2.049h0v-.135a1.181,1.181,0,0,1,.017-.243,2.675,2.675,0,0,1,.132-.567,2.58,2.58,0,0,1,.1-.267,4.74,4.74,0,0,1,.432-.76c.121-.186.256-.365.392-.547a7.463,7.463,0,0,0,1.212-1.961,3.718,3.718,0,0,0,.186-1.117,5.511,5.511,0,0,0-.1-1.148c-.047-.25-.108-.5-.176-.746h0c-.044-.152-.091-.3-.138-.452l-.041-.122c-.037-.115-.074-.226-.115-.338l-.041-.115c-.044-.121-.088-.24-.135-.361l-.027-.071c-.645-1.658-1.5-3.237-2.026-4.942a12.993,12.993,0,0,1-.338-1.381c-.024-.118-.041-.24-.061-.358s-.03-.2-.044-.3-.031-.236-.044-.354l-.03-.338c0-.108-.017-.216-.024-.338,0-.206-.02-.412-.024-.618V428.7c0-.155.024-.311.037-.462a.686.686,0,0,1,.024-.219q.034-.338.091-.675h0c.034-.2.071-.4.111-.6a8.052,8.052,0,0,0,.189-1.688,1.669,1.669,0,0,0-.024-.338c-.024-.118-.027-.182-.044-.27a.641.641,0,0,1,0-.081.9.9,0,0,0-.044-.182.346.346,0,0,0-.027-.084c-.01-.027-.037-.118-.057-.175s-.017-.051-.027-.078-.047-.121-.074-.179l-.024-.061c-.034-.074-.071-.145-.108-.216h0a4.991,4.991,0,0,0-.453-.7h0c-1.111-1.458-2.957-2.569-3.973-4.176a9.293,9.293,0,0,1-1.138-3.376c-.051-.27-.095-.54-.142-.807s-.088-.53-.135-.793c-.03-.162-.061-.338-.095-.486l-.02-.1c-.027-.128-.054-.26-.084-.388l-.02-.091c-.03-.135-.061-.27-.095-.405l-.02-.071c-.034-.142-.071-.284-.108-.425a.292.292,0,0,1,0-.051c-.041-.149-.084-.3-.128-.446v-.03c-.047-.155-.094-.307-.145-.459h0c-.051-.155-.1-.314-.162-.469h0c-.061-.159-.118-.317-.182-.473h0a12.491,12.491,0,0,0-1.708-3.038,8.063,8.063,0,0,0-6.414-3.315,12.707,12.707,0,0,0-3.859.979l-3.251,1.2.908-.419a7.768,7.768,0,0,0-2.765.591,2.685,2.685,0,0,0-1.6,2.2c-.017.557.2,1.111.132,1.664-.118.915-.959,1.536-1.394,2.346a3.019,3.019,0,0,0-.338,1.587v.216a.285.285,0,0,0,0,.054v.108c-1.35-.587-2.7-1.2-4.051-1.853-2.231-1.1-4.49-2.387-5.881-4.466-.446-.675-.79-1.4-1.232-2.073a16.394,16.394,0,0,0-1.688-2.025l-4.142-4.483c-.317.6.091,1.3.412,1.9a8.145,8.145,0,0,1,.766,1.978.937.937,0,0,1-.02.692,1.35,1.35,0,0,1-.567.4,2.025,2.025,0,0,0-.854,2.319,2.565,2.565,0,0,0,1.914,1.668,3.478,3.478,0,0,1,.854.209c.5.247.736.82,1.094,1.249a4.91,4.91,0,0,0,2.677,1.333c1.533,1.769,3.126,3.464,4.659,5.233,2.319,2.677,4.692,5.4,7.717,7.211.314.189.635.365.959.527a.528.528,0,0,1-.017.162,1.83,1.83,0,0,0,.145,1.182,1.856,1.856,0,0,0,1.323.645l2.289.408a7.837,7.837,0,0,1-.111.885c-.031.179-.068.354-.1.533h0l-.04.23v.034a.672.672,0,0,1-.024.186c-.024.064,0,.044,0,.064v.449a4.3,4.3,0,0,0,1.272,2.326l.321.388a5.4,5.4,0,0,0-1.043,2.188,7.44,7.44,0,0,0-.149,1.522,2.643,2.643,0,0,0-.675,1.053,4.819,4.819,0,0,0-.175,1.7v.675a5.671,5.671,0,0,0,.391,2.363c.03.061.064.115.095.172a32.822,32.822,0,0,1-1.955,2.7,5.861,5.861,0,0,0,.537,6.711c.463.533,1.057,1.047,1.111,1.755a6.594,6.594,0,0,1-.095.959,7.173,7.173,0,0,0,.486,2.225,2.3,2.3,0,0,1-.186,1.843,2.7,2.7,0,0,0-.463,1.769,11.827,11.827,0,0,1-.29,2.88c-.031.415,0,.837-.037,1.252a7.073,7.073,0,0,1-.246,1.175.471.471,0,0,1-.034.128c-.834.368-1.661.749-2.458,1.192a2.157,2.157,0,0,0-1.013.932,2.389,2.389,0,0,0-.054,1.283l.719,5-.125-.054q.084,1.229.175,2.468a3.331,3.331,0,0,0,.473,1.786,4.653,4.653,0,0,1,.51.652c.284.574-.054,1.242-.3,1.83s-.338,1.421.213,1.739a4.486,4.486,0,0,0,.922.493c-.675,2.815-.054,5.766.574,8.591q.719,3.241,1.442,6.475a15.7,15.7,0,0,1,.317,2.782v.405a15.586,15.586,0,0,0,.675,3.788c.75,2.525.03,5.557.267,8.308a24.662,24.662,0,0,0,.79,3.913,120.572,120.572,0,0,1,3.646,19.458,4.889,4.889,0,0,0,2.336,1.631c-.068.817.024,1.752,0,2.228a3.849,3.849,0,0,1-.182,1.161,2.791,2.791,0,0,1-1.766,1.5c-.236.081-.476.145-.719.2l.27-.23a6.029,6.029,0,0,0-4.493.79,1.779,1.779,0,0,0-.888,1.046,1.687,1.687,0,0,0,.311,1.212,5.526,5.526,0,0,0,3.123,2.218,16.381,16.381,0,0,0,3.849.537l2.383.138a.655.655,0,0,0,.155.847,1.667,1.667,0,0,0,.874.317,11.14,11.14,0,0,0,2.94.044,1.151,1.151,0,0,0,.675-.243.435.435,0,0,0,0-.645.713.713,0,0,0,.648-.473,1.917,1.917,0,0,0,.088-.854,9.171,9.171,0,0,0-.739-3.714.942.942,0,0,0-1.043-.459,40.512,40.512,0,0,1-.675-5.989,14.624,14.624,0,0,0,1.735-.783c-1.658-2.677-1.688-6.076-1.182-9.189a27.9,27.9,0,0,0,.442-2.974,9.865,9.865,0,0,0-1.293-5.894,21.091,21.091,0,0,1,5.266,4.767c2.333,3.038,3.754,6.718,6.613,9.25q.564-.55,1.141-1.094.9,1.533,1.712,3.129a11.906,11.906,0,0,1,.992,2.468,11.412,11.412,0,0,1,.091,3.98q-.118,1.053-.287,2.1a5.7,5.7,0,0,1-.206.878.61.61,0,0,0-.064-.263c-.179-.314-.675-.172-.945.044a4.173,4.173,0,0,0-1.165,1.35,1.455,1.455,0,0,0-.209.861,1.272,1.272,0,0,0,.675.844c1.252.733,2.826.2,4.169-.338a4.891,4.891,0,0,0,1.053-.53c.675-.486,1.043-1.286,1.715-1.759a9.933,9.933,0,0,0,1.036-.655c.625-.571.675-1.533,1.131-2.255.756-1.246,2.448-1.566,3.109-2.886C844.9,536.084,844.01,534.244,842.855,533.292Z" transform="translate(-608.679 -340.002)" fill="url(#linear-gradient)"/>
    <path id="Path_155" data-name="Path 155" d="M864.488,807.247a3.764,3.764,0,0,1-.186,1.148,2.775,2.775,0,0,1-1.762,1.482c-.749.26-1.546.338-2.309.564a2.026,2.026,0,0,0-.9.466,1.635,1.635,0,0,0,.52,2.393,4.485,4.485,0,0,0,2.734.422,36.039,36.039,0,0,0,5.915-.841c.7-.166,1.522-.49,1.634-1.2a1.969,1.969,0,0,0-.054-.675,39.9,39.9,0,0,1-.76-7.336,15.247,15.247,0,0,0-4.281-.031C864.221,804.175,864.532,806.417,864.488,807.247Z" transform="translate(-659.415 -608.015)" fill="#a1616a"/>
    <path id="Path_156" data-name="Path 156" d="M925.529,782.367q.972,1.61,1.826,3.285a11.643,11.643,0,0,1,.992,2.434,11.182,11.182,0,0,1,.091,3.926q-.118,1.037-.29,2.069a2.613,2.613,0,0,1-.868,1.83,2,2,0,0,0,1.722.152,4.956,4.956,0,0,0,1.516-.928,13.38,13.38,0,0,0,5.172-9.6,1.522,1.522,0,0,0-.159-.851,1.682,1.682,0,0,0-.506-.452,38.917,38.917,0,0,1-5.985-5.027.734.734,0,0,0-.439-.28.762.762,0,0,0-.392.111c-1.111.557-2.967,1.35-3.43,2.616a1.771,1.771,0,0,1,.75.719Z" transform="translate(-702.997 -591.733)" fill="#a1616a"/>
    <path id="Path_157" data-name="Path 157" d="M864.039,823.367a30.055,30.055,0,0,1-7.694,1.725,1.052,1.052,0,0,1-.922-.169.7.7,0,0,1-.061-.79,2.059,2.059,0,0,1,.564-.621l1.745-1.462a6.077,6.077,0,0,0-4.436.763,1.765,1.765,0,0,0-.884,1.013,1.646,1.646,0,0,0,.311,1.2,5.516,5.516,0,0,0,3.119,2.188,16.676,16.676,0,0,0,3.845.53l2.363.135a.638.638,0,0,0,.159.837,1.689,1.689,0,0,0,.878.321,11.254,11.254,0,0,0,2.937.041,1.126,1.126,0,0,0,.675-.24.426.426,0,0,0,0-.635.712.712,0,0,0,.648-.469,1.959,1.959,0,0,0,.088-.841,8.844,8.844,0,0,0-.739-3.656C866.058,822.28,864.856,823.029,864.039,823.367Z" transform="translate(-655.01 -620.215)" fill="#3f3d56"/>
    <path id="Path_158" data-name="Path 158" d="M938.625,794.777a10.858,10.858,0,0,0-2.505-1.387.3.3,0,0,0-.452.115,25.7,25.7,0,0,0-3.69,7.113,12.363,12.363,0,0,1-1.843,4.172c-.128.155-.338.314-.513.223-.253-.128-.1-.537-.24-.783-.176-.31-.655-.169-.942.044a4.049,4.049,0,0,0-1.161,1.35,1.351,1.351,0,0,0-.209.847,1.25,1.25,0,0,0,.658.831c1.253.726,2.825.2,4.166-.338a4.779,4.779,0,0,0,1.05-.523c.675-.476,1.043-1.269,1.715-1.732a9.854,9.854,0,0,0,1.036-.648c.621-.564.675-1.512,1.127-2.228.756-1.225,2.448-1.543,3.109-2.846C940.671,797.532,939.78,795.715,938.625,794.777Z" transform="translate(-704.511 -601.277)" fill="#3f3d56"/>
    <path id="Path_159" data-name="Path 159" d="M861.887,594.483c2.653,1.992,3.767,5.533,3.649,8.848s-1.283,6.5-2.437,9.6q-2.481,6.674-4.956,13.345a5.506,5.506,0,0,1,.338,1.519,1.867,1.867,0,0,1-.338,1.492c-.155.179-.338.317-.506.493a2.643,2.643,0,0,0-.439,2.069,5.994,5.994,0,0,1,.057,2.164c-.078.3-.219.584-.274.888a.881.881,0,0,0,.247.851c.337.27,1.013.182,1.111.608a50.455,50.455,0,0,1,11.241,13.841c1.094,1.968,2.2,4.149,4.24,5.1a74.05,74.05,0,0,0-5.715,5.027c-2.853-2.5-4.274-6.134-6.6-9.115a20.929,20.929,0,0,0-5.26-4.7,9.62,9.62,0,0,1,1.293,5.813,26.963,26.963,0,0,1-.442,2.933c-.523,3.072-.476,6.414,1.182,9.068a9.922,9.922,0,0,1-5.776,1.327,4.916,4.916,0,0,1-3.146-1.8,118.724,118.724,0,0,0-3.643-19.2,23.58,23.58,0,0,1-.786-3.886c-.236-2.7.483-5.705-.27-8.2a15.278,15.278,0,0,1-.675-3.734v-.4a15.3,15.3,0,0,0-.317-2.741l-1.438-6.387c-.628-2.792-1.256-5.7-.577-8.48a4.505,4.505,0,0,1-.918-.483c-.55-.314-.462-1.135-.213-1.715s.584-1.239.3-1.806a4.41,4.41,0,0,0-.51-.645,3.246,3.246,0,0,1-.472-1.759l-.176-2.437a4.771,4.771,0,0,1,2.4,2.1c-1.33-2.059-.675-5,.307-7.245a3.3,3.3,0,0,1,3.1-2.454C850.881,593.471,857.491,591.178,861.887,594.483Z" transform="translate(-646.612 -468.416)" fill="#192534"/>
    <path id="Path_160" data-name="Path 160" d="M891.26,638.93s-2.66,1.776-2.66,3.106-.675,13.3-.675,13.3v8.439s.442,4.436,0,5.543,0,6.208,0,6.873.675-6.873.675-6.873v-7.994l.675-18.182Z" transform="translate(-678.453 -499.001)" opacity="0.1"/>
    <path id="Path_161" data-name="Path 161" d="M806.677,422.424l-1.55-.6c-3.167-1.269-6.336-2.542-9.4-4.031-2.228-1.084-4.487-2.363-5.874-4.405-.446-.675-.79-1.384-1.232-2.049a16.347,16.347,0,0,0-1.688-2l-4.139-4.422c-.318.591.088,1.286.411,1.87a8.1,8.1,0,0,1,.767,1.955.9.9,0,0,1-.024.675,1.312,1.312,0,0,1-.564.4,1.982,1.982,0,0,0-.854,2.285,2.549,2.549,0,0,0,1.911,1.647,3.63,3.63,0,0,1,.854.206c.5.246.736.81,1.094,1.232a4.913,4.913,0,0,0,2.674,1.317c1.533,1.745,3.123,3.416,4.655,5.162,2.316,2.64,4.686,5.327,7.71,7.116a11.293,11.293,0,0,0,3.481,1.4A56.4,56.4,0,0,1,806.677,422.424Z" transform="translate(-608.707 -343.983)" fill="#a1616a"/>
    <path id="Path_162" data-name="Path 162" d="M806.677,422.424l-1.55-.6c-3.167-1.269-6.336-2.542-9.4-4.031-2.228-1.084-4.487-2.363-5.874-4.405-.446-.675-.79-1.384-1.232-2.049a16.347,16.347,0,0,0-1.688-2l-4.139-4.422c-.318.591.088,1.286.411,1.87a8.1,8.1,0,0,1,.767,1.955.9.9,0,0,1-.024.675,1.312,1.312,0,0,1-.564.4,1.982,1.982,0,0,0-.854,2.285,2.549,2.549,0,0,0,1.911,1.647,3.63,3.63,0,0,1,.854.206c.5.246.736.81,1.094,1.232a4.913,4.913,0,0,0,2.674,1.317c1.533,1.745,3.123,3.416,4.655,5.162,2.316,2.64,4.686,5.327,7.71,7.116a11.293,11.293,0,0,0,3.481,1.4A56.4,56.4,0,0,1,806.677,422.424Z" transform="translate(-608.707 -343.983)" opacity="0.15"/>
    <path id="Path_163" data-name="Path 163" d="M842.88,464.73a1.858,1.858,0,0,1-1.323-.635,1.779,1.779,0,0,1-.145-1.165,32.673,32.673,0,0,1,1.688-7.461,8.066,8.066,0,0,0,3.639,2.94,27.01,27.01,0,0,0,3.909,1.783c-.338-.108-1.165,5.084-1.631,5.4-.587.412-2.005-.145-2.657-.257Z" transform="translate(-647.746 -377.474)" fill="#6c63ff"/>
    <circle id="Ellipse_28" data-name="Ellipse 28" cx="7.096" cy="7.096" r="7.096" transform="translate(191.633 71.531)" fill="#a1616a"/>
    <path id="Path_164" data-name="Path 164" d="M852.22,465.109s4.655,3.99,2.66,6.65-3.106,4.436-.446,4.659,11.528-4.436,11.528-4.436-8.2-6.65-6.873-10.641S852.22,465.109,852.22,465.109Z" transform="translate(-654.932 -380.608)" fill="#fbbebe"/>
    <path id="Path_165" data-name="Path 165" d="M851,483.447a5.506,5.506,0,0,0-4.075,4.1c-.523,2.39.587,5.064-.459,7.265a28.863,28.863,0,0,1-2.025,2.812,5.739,5.739,0,0,0,.533,6.62c.463.527,1.057,1.036,1.111,1.732a6.363,6.363,0,0,1-.095.945,7.015,7.015,0,0,0,.486,2.2,2.235,2.235,0,0,1-.186,1.816,2.63,2.63,0,0,0-.459,1.745,11.674,11.674,0,0,1-.294,2.843c-.03.412,0,.824-.037,1.235a7.207,7.207,0,0,1-.243,1.158l-.594,2.191a24.35,24.35,0,0,0,10.128,1.809,49.643,49.643,0,0,0,9.246-1.35c.928-.2,1.857-.392,2.771-.645-1.931-2.525-2.137-5.871-2.191-9.047a135.027,135.027,0,0,0-1.185-15.833,20.359,20.359,0,0,0,1.735-5.7,9.637,9.637,0,0,0,.216-2.407,12.8,12.8,0,0,0-1.63-4.821c-.7-1.4-1.448-2.869-3-3.474a2.383,2.383,0,0,0-2.306.253c-1.171.884-.824,2.41-1.124,3.713a4.984,4.984,0,0,1-3.609,3.376,11.727,11.727,0,0,1-3.794.354.675.675,0,0,1-.479-1.107C849.984,484.632,850.53,484.021,851,483.447Z" transform="translate(-649.242 -392.701)" fill="#2a2ac0"/>
    <path id="Path_166" data-name="Path 166" d="M852.595,574.49a46.2,46.2,0,0,1-8.315,5.834c-1.779.891-3.669,1.549-5.4,2.508a2.158,2.158,0,0,0-1.013.918,2.269,2.269,0,0,0-.054,1.266l.77,5.307c.213,1.438,1.593,2.363,2.7,3.281a1.943,1.943,0,0,1,.071-1.286,4.329,4.329,0,0,1,.26-.388,3.643,3.643,0,0,0,.375-2.495,13.855,13.855,0,0,1-.294-2.559.837.837,0,0,1,.358-.743c3.771-1.813,7.832-3.2,11.643-4.925a12.345,12.345,0,0,0,2.826-1.6,4.348,4.348,0,0,0,1.641-2.724.533.533,0,0,0-.068-.415.564.564,0,0,0-.287-.169C856.1,575.675,854.3,575.1,852.595,574.49Z" transform="translate(-645.345 -456.315)" fill="#a1616a"/>
    <path id="Path_167" data-name="Path 167" d="M853.635,508.495a3.817,3.817,0,0,0-3.116,2.144,4.767,4.767,0,0,0-.176,1.688,5.49,5.49,0,0,0,.395,2.339,6.614,6.614,0,0,0,.79,1.148c3.119,4,4.686,9.017,7.724,13.078.27.358.763.824.611,1.246a3.018,3.018,0,0,0-.145.338.674.674,0,0,0,.223.591,1.44,1.44,0,0,1,.368.537c.057.213-.084.489-.3.473a4.516,4.516,0,0,0,2.542,2.319,10.584,10.584,0,0,0,5.675,1.394,12.951,12.951,0,0,0,.675-4.645,12.058,12.058,0,0,0-1.131-3.295l-1.32-2.883a42.922,42.922,0,0,0-3.825-7.143,10.808,10.808,0,0,1-1.414-2.279c-.4-1.043-1.506-1.776-2.174-2.67a16.55,16.55,0,0,0-3.355-3.676A3.033,3.033,0,0,0,853.635,508.495Z" transform="translate(-653.68 -412.587)" opacity="0.1"/>
    <path id="Path_168" data-name="Path 168" d="M853.635,506.525a3.82,3.82,0,0,0-3.116,2.14,4.787,4.787,0,0,0-.176,1.688,5.491,5.491,0,0,0,.395,2.339,6.6,6.6,0,0,0,.79,1.148c3.119,4,4.686,9.017,7.724,13.078.27.358.763.824.611,1.246a3.069,3.069,0,0,0-.145.338.675.675,0,0,0,.223.591,1.442,1.442,0,0,1,.368.537c.057.213-.084.49-.3.473a4.517,4.517,0,0,0,2.542,2.319,10.584,10.584,0,0,0,5.675,1.394,12.957,12.957,0,0,0,.675-4.645,12.052,12.052,0,0,0-1.131-3.295l-1.32-2.883a42.921,42.921,0,0,0-3.825-7.143,10.749,10.749,0,0,1-1.414-2.282c-.4-1.04-1.506-1.772-2.174-2.667a16.547,16.547,0,0,0-3.356-3.676A3.046,3.046,0,0,0,853.635,506.525Z" transform="translate(-653.681 -411.282)" fill="#2a2ac0"/>
    <path id="Path_169" data-name="Path 169" d="M839.6,419.368a7.815,7.815,0,0,0-2.762.581,2.657,2.657,0,0,0-1.6,2.167,12.864,12.864,0,0,1,.132,1.641c-.118.9-.959,1.516-1.391,2.316-.756,1.391-.169,3.16.81,4.389s2.306,2.174,3.312,3.4a8.777,8.777,0,0,1,1.83,7.062,5.6,5.6,0,0,0-.179,1.475,4.239,4.239,0,0,0,1.269,2.292,105.915,105.915,0,0,1,8.008,10.654A28.769,28.769,0,0,1,851,458.717a20.477,20.477,0,0,0,1.809,3.568,9.422,9.422,0,0,0,2.657,2.279,18.762,18.762,0,0,0,8.507,2.745L862.23,463a4.951,4.951,0,0,1-.523-2.393c.193-1.553,1.759-2.572,2.268-4.051a4.914,4.914,0,0,0-.091-2.971c-.614-2.184-1.843-4.149-2.505-6.32a12.829,12.829,0,0,1-.378-5.877,9.084,9.084,0,0,0,.274-2.6c-.321-2.64-3.416-3.9-4.848-6.141a13.266,13.266,0,0,1-1.415-4.892,15.436,15.436,0,0,0-2.8-6.863,8.057,8.057,0,0,0-6.414-3.271,12.965,12.965,0,0,0-3.855.965l-3.254,1.185" transform="translate(-642.618 -352.398)" fill="#3f3d56"/>
    <g id="Group_17" data-name="Group 17" transform="translate(191.022 71.497)" opacity="0.1">
      <path id="Path_170" data-name="Path 170" d="M893.949,437.206a15.618,15.618,0,0,0,1.165,4.46c-.1-.527-.179-1.057-.277-1.577a19.662,19.662,0,0,0-1.087-3.869C893.835,436.547,893.892,436.875,893.949,437.206Z" transform="translate(-873.464 -436.22)"/>
      <path id="Path_171" data-name="Path 171" d="M911.731,476.1a12.894,12.894,0,0,0,.378,5.881,15.117,15.117,0,0,0,.554,1.519,12.846,12.846,0,0,1-.044-4.517,9.083,9.083,0,0,0,.273-2.6,4.053,4.053,0,0,0-.878-2.026C911.963,474.947,911.829,475.525,911.731,476.1Z" transform="translate(-885.256 -461.485)"/>
      <path id="Path_172" data-name="Path 172" d="M917.184,520.534a16.292,16.292,0,0,0-.676-1.864,4.139,4.139,0,0,1-.128,1.951c-.51,1.475-2.08,2.5-2.269,4.051a4.915,4.915,0,0,0,.523,2.394c.115.287.23.577.338.864a2.824,2.824,0,0,1,0-.375c.193-1.553,1.759-2.572,2.269-4.051A4.715,4.715,0,0,0,917.184,520.534Z" transform="translate(-886.939 -490.836)"/>
      <path id="Path_173" data-name="Path 173" d="M866.569,508.455a9.453,9.453,0,0,1-2.657-2.282A20.365,20.365,0,0,1,862.1,502.6a28.481,28.481,0,0,0-1.971-3.376,106.073,106.073,0,0,0-8-10.657c-.1-.118-.206-.24-.307-.361a3.456,3.456,0,0,0-.078.952,4.24,4.24,0,0,0,1.269,2.292,105.9,105.9,0,0,1,8.008,10.654,28.814,28.814,0,0,1,1.971,3.376,20.5,20.5,0,0,0,1.809,3.568,9.425,9.425,0,0,0,2.657,2.279,18.76,18.76,0,0,0,8.507,2.745l-1.182-2.9A18.782,18.782,0,0,1,866.569,508.455Z" transform="translate(-845.631 -470.659)"/>
      <path id="Path_174" data-name="Path 174" d="M837.227,449.871c-1.013-1.222-2.333-2.15-3.312-3.393-.088-.115-.172-.233-.257-.358a4.914,4.914,0,0,0,1.144,3.237c.979,1.246,2.306,2.174,3.312,3.4a8.446,8.446,0,0,1,1.013,1.539,8.778,8.778,0,0,0-1.9-4.422Z" transform="translate(-833.658 -442.778)"/>
    </g>
    <path id="Path_175" data-name="Path 175" d="M393.339,349l-2.447-2.461a1.3,1.3,0,0,0-1.847,0l-15.37,15.228-6.5-6.549a1.3,1.3,0,0,0-1.833,0l-2.475,2.448a1.313,1.313,0,0,0,0,1.847l9.874,9.949a1.31,1.31,0,0,0,1.843,0l18.756-18.614a1.3,1.3,0,0,0,0-1.847Z" transform="translate(-330.525 -305.059)" fill="#3acc6c"/>
    <path id="Path_176" data-name="Path 176" d="M594.339,349l-2.448-2.461a1.3,1.3,0,0,0-1.847,0l-15.37,15.228-6.5-6.549a1.3,1.3,0,0,0-1.833,0l-2.474,2.447a1.313,1.313,0,0,0,0,1.847l9.874,9.949a1.31,1.31,0,0,0,1.843,0l18.756-18.614a1.3,1.3,0,0,0,0-1.847Z" transform="translate(-463.67 -305.059)" fill="#3acc6c"/>
  </g>
</svg>
